<?xml version="1.0" encoding="UTF-8" standalone="no"?>
<!DOCTYPE svg PUBLIC "-//W3C//DTD SVG 1.1//EN"
 "http://www.w3.org/Graphics/SVG/1.1/DTD/svg11.dtd">
<!-- Generated by graphviz version 2.26.3 (20100126.1600)
 -->
<!-- Title: controllers_diagram Pages: 1 -->
<svg width="369pt" height="240pt"
 viewBox="0.00 0.00 369.00 240.00" xmlns="http://www.w3.org/2000/svg" xmlns:xlink="http://www.w3.org/1999/xlink">
<g id="graph1" class="graph" transform="scale(1 1) rotate(0) translate(4 236)">
<title>controllers_diagram</title>
<polygon fill="white" stroke="white" points="-4,5 -4,-236 366,-236 366,5 -4,5"/>
<!-- _diagram_info -->
<g id="node1" class="node"><title>_diagram_info</title>
<text text-anchor="start" x="189" y="-198.3" font-family="Times,serif" font-size="13.00">Controllers diagram</text>
<text text-anchor="start" x="189" y="-184.3" font-family="Times,serif" font-size="13.00">Date: Feb 24 2011 &#45; 13:04</text>
<text text-anchor="start" x="189" y="-170.3" font-family="Times,serif" font-size="13.00">Migration version: 0</text>
<text text-anchor="start" x="189" y="-156.3" font-family="Times,serif" font-size="13.00">Generated by RailRoady 1.0.1</text>
<text text-anchor="start" x="189" y="-142.3" font-family="Times,serif" font-size="13.00">http://railroady.prestonlee.com</text>
</g>
<!-- ApplicationController -->
<g id="node2" class="node"><title>ApplicationController</title>
<polyline fill="none" stroke="black" points="13,-1.5 196,-1.5 "/>
<path fill="none" stroke="black" d="M196,-1.5C202,-1.5 208,-7.5 208,-13.5"/>
<polyline fill="none" stroke="black" points="208,-13.5 208,-97.5 "/>
<path fill="none" stroke="black" d="M208,-97.5C208,-103.5 202,-109.5 196,-109.5"/>
<polyline fill="none" stroke="black" points="196,-109.5 13,-109.5 "/>
<path fill="none" stroke="black" d="M13,-109.5C7,-109.5 1,-103.5 1,-97.5"/>
<polyline fill="none" stroke="black" points="1,-97.5 1,-13.5 "/>
<path fill="none" stroke="black" d="M1,-13.5C1,-7.5 7,-1.5 13,-1.5"/>
<text text-anchor="middle" x="104.5" y="-92.9" font-family="Times,serif" font-size="14.00">ApplicationController</text>
<polyline fill="none" stroke="black" points="1,-86.5 208,-86.5 "/>
<text text-anchor="start" x="9" y="-69.9" font-family="Times,serif" font-size="14.00">_one_time_conditions_valid_18?</text>
<polyline fill="none" stroke="black" points="1,-63.5 208,-63.5 "/>
<polyline fill="none" stroke="black" points="1,-39.5 208,-39.5 "/>
<text text-anchor="start" x="9" y="-22.9" font-family="Times,serif" font-size="14.00">_layout</text>
<text text-anchor="start" x="9" y="-7.9" font-family="Times,serif" font-size="14.00">_run_process_action_callbacks</text>
</g>
<!-- HomeController -->
<g id="node3" class="node"><title>HomeController</title>
<polyline fill="none" stroke="black" points="43,-136.5 132,-136.5 "/>
<path fill="none" stroke="black" d="M132,-136.5C138,-136.5 144,-142.5 144,-148.5"/>
<polyline fill="none" stroke="black" points="144,-148.5 144,-218.5 "/>
<path fill="none" stroke="black" d="M144,-218.5C144,-224.5 138,-230.5 132,-230.5"/>
<polyline fill="none" stroke="black" points="132,-230.5 43,-230.5 "/>
<path fill="none" stroke="black" d="M43,-230.5C37,-230.5 31,-224.5 31,-218.5"/>
<polyline fill="none" stroke="black" points="31,-218.5 31,-148.5 "/>
<path fill="none" stroke="black" d="M31,-148.5C31,-142.5 37,-136.5 43,-136.5"/>
<text text-anchor="middle" x="87.5" y="-213.9" font-family="Times,serif" font-size="14.00">HomeController</text>
<polyline fill="none" stroke="black" points="31,-207.5 144,-207.5 "/>
<polyline fill="none" stroke="black" points="31,-183.5 144,-183.5 "/>
<polyline fill="none" stroke="black" points="31,-159.5 144,-159.5 "/>
<text text-anchor="start" x="39" y="-142.9" font-family="Times,serif" font-size="14.00">_layout</text>
</g>
</g>
</svg>
