<?xml version="1.0" encoding="UTF-8" standalone="no"?>
<!DOCTYPE svg PUBLIC "-//W3C//DTD SVG 1.1//EN"
 "http://www.w3.org/Graphics/SVG/1.1/DTD/svg11.dtd">
<!-- Generated by graphviz version 2.26.3 (20100126.1600)
 -->
<!-- Title: controllers_diagram Pages: 1 -->
<svg width="525pt" height="430pt"
 viewBox="0.00 0.00 525.00 430.00" xmlns="http://www.w3.org/2000/svg" xmlns:xlink="http://www.w3.org/1999/xlink">
<g id="graph1" class="graph" transform="scale(1 1) rotate(0) translate(4 426)">
<title>controllers_diagram</title>
<polygon fill="white" stroke="white" points="-4,5 -4,-426 522,-426 522,5 -4,5"/>
<!-- _diagram_info -->
<g id="node1" class="node"><title>_diagram_info</title>
<text text-anchor="start" x="99" y="-405.3" font-family="Times,serif" font-size="13.00">Controllers diagram</text>
<text text-anchor="start" x="99" y="-391.3" font-family="Times,serif" font-size="13.00">Date: Mar 12 2011 &#45; 16:49</text>
<text text-anchor="start" x="99" y="-377.3" font-family="Times,serif" font-size="13.00">Migration version: 0</text>
<text text-anchor="start" x="99" y="-363.3" font-family="Times,serif" font-size="13.00">Generated by RailRoady 1.0.1</text>
<text text-anchor="start" x="99" y="-349.3" font-family="Times,serif" font-size="13.00">http://railroady.prestonlee.com</text>
</g>
<!-- AccountSessionsController -->
<g id="node2" class="node"><title>AccountSessionsController</title>
<polyline fill="none" stroke="black" points="319,-253.5 469,-253.5 "/>
<path fill="none" stroke="black" d="M469,-253.5C475,-253.5 481,-259.5 481,-265.5"/>
<polyline fill="none" stroke="black" points="481,-265.5 481,-364.5 "/>
<path fill="none" stroke="black" d="M481,-364.5C481,-370.5 475,-376.5 469,-376.5"/>
<polyline fill="none" stroke="black" points="469,-376.5 319,-376.5 "/>
<path fill="none" stroke="black" d="M319,-376.5C313,-376.5 307,-370.5 307,-364.5"/>
<polyline fill="none" stroke="black" points="307,-364.5 307,-265.5 "/>
<path fill="none" stroke="black" d="M307,-265.5C307,-259.5 313,-253.5 319,-253.5"/>
<text text-anchor="middle" x="394" y="-359.9" font-family="Times,serif" font-size="14.00">AccountSessionsController</text>
<polyline fill="none" stroke="black" points="307,-353.5 481,-353.5 "/>
<text text-anchor="start" x="315" y="-336.9" font-family="Times,serif" font-size="14.00">create</text>
<text text-anchor="start" x="315" y="-321.9" font-family="Times,serif" font-size="14.00">destroy</text>
<text text-anchor="start" x="315" y="-306.9" font-family="Times,serif" font-size="14.00">new</text>
<polyline fill="none" stroke="black" points="307,-300.5 481,-300.5 "/>
<polyline fill="none" stroke="black" points="307,-276.5 481,-276.5 "/>
<text text-anchor="start" x="315" y="-259.9" font-family="Times,serif" font-size="14.00">_layout</text>
</g>
<!-- AdminController -->
<g id="node3" class="node"><title>AdminController</title>
<polyline fill="none" stroke="black" points="157,-1.5 256,-1.5 "/>
<path fill="none" stroke="black" d="M256,-1.5C262,-1.5 268,-7.5 268,-13.5"/>
<polyline fill="none" stroke="black" points="268,-13.5 268,-292.5 "/>
<path fill="none" stroke="black" d="M268,-292.5C268,-298.5 262,-304.5 256,-304.5"/>
<polyline fill="none" stroke="black" points="256,-304.5 157,-304.5 "/>
<path fill="none" stroke="black" d="M157,-304.5C151,-304.5 145,-298.5 145,-292.5"/>
<polyline fill="none" stroke="black" points="145,-292.5 145,-13.5 "/>
<path fill="none" stroke="black" d="M145,-13.5C145,-7.5 151,-1.5 157,-1.5"/>
<text text-anchor="middle" x="206.5" y="-287.9" font-family="Times,serif" font-size="14.00">AdminController</text>
<polyline fill="none" stroke="black" points="145,-281.5 268,-281.5 "/>
<text text-anchor="start" x="153" y="-264.9" font-family="Times,serif" font-size="14.00">add_hser</text>
<text text-anchor="start" x="153" y="-249.9" font-family="Times,serif" font-size="14.00">auth</text>
<text text-anchor="start" x="153" y="-234.9" font-family="Times,serif" font-size="14.00">change_motd</text>
<text text-anchor="start" x="153" y="-219.9" font-family="Times,serif" font-size="14.00">change_password</text>
<text text-anchor="start" x="153" y="-204.9" font-family="Times,serif" font-size="14.00">change_spec</text>
<text text-anchor="start" x="153" y="-189.9" font-family="Times,serif" font-size="14.00">delete_user</text>
<text text-anchor="start" x="153" y="-174.9" font-family="Times,serif" font-size="14.00">email</text>
<text text-anchor="start" x="153" y="-159.9" font-family="Times,serif" font-size="14.00">index</text>
<text text-anchor="start" x="153" y="-144.9" font-family="Times,serif" font-size="14.00">manage_donations</text>
<text text-anchor="start" x="153" y="-129.9" font-family="Times,serif" font-size="14.00">new_accounts</text>
<text text-anchor="start" x="153" y="-114.9" font-family="Times,serif" font-size="14.00">polls</text>
<text text-anchor="start" x="153" y="-99.9" font-family="Times,serif" font-size="14.00">secrets</text>
<text text-anchor="start" x="153" y="-84.9" font-family="Times,serif" font-size="14.00">style_stats</text>
<text text-anchor="start" x="153" y="-69.9" font-family="Times,serif" font-size="14.00">swap_password</text>
<text text-anchor="start" x="153" y="-54.9" font-family="Times,serif" font-size="14.00">update_frequency</text>
<polyline fill="none" stroke="black" points="145,-48.5 268,-48.5 "/>
<polyline fill="none" stroke="black" points="145,-24.5 268,-24.5 "/>
<text text-anchor="start" x="153" y="-7.9" font-family="Times,serif" font-size="14.00">_layout</text>
</g>
<!-- ApplicationController -->
<g id="node4" class="node"><title>ApplicationController</title>
<polyline fill="none" stroke="black" points="319,-73.5 504,-73.5 "/>
<path fill="none" stroke="black" d="M504,-73.5C510,-73.5 516,-79.5 516,-85.5"/>
<polyline fill="none" stroke="black" points="516,-85.5 516,-199.5 "/>
<path fill="none" stroke="black" d="M516,-199.5C516,-205.5 510,-211.5 504,-211.5"/>
<polyline fill="none" stroke="black" points="504,-211.5 319,-211.5 "/>
<path fill="none" stroke="black" d="M319,-211.5C313,-211.5 307,-205.5 307,-199.5"/>
<polyline fill="none" stroke="black" points="307,-199.5 307,-85.5 "/>
<path fill="none" stroke="black" d="M307,-85.5C307,-79.5 313,-73.5 319,-73.5"/>
<text text-anchor="middle" x="411.5" y="-194.9" font-family="Times,serif" font-size="14.00">ApplicationController</text>
<polyline fill="none" stroke="black" points="307,-188.5 516,-188.5 "/>
<text text-anchor="start" x="315" y="-171.9" font-family="Times,serif" font-size="14.00">_one_time_conditions_valid_74?</text>
<text text-anchor="start" x="315" y="-156.9" font-family="Times,serif" font-size="14.00">current_account</text>
<text text-anchor="start" x="315" y="-141.9" font-family="Times,serif" font-size="14.00">current_account_session</text>
<polyline fill="none" stroke="black" points="307,-135.5 516,-135.5 "/>
<polyline fill="none" stroke="black" points="307,-111.5 516,-111.5 "/>
<text text-anchor="start" x="315" y="-94.9" font-family="Times,serif" font-size="14.00">_layout</text>
<text text-anchor="start" x="315" y="-79.9" font-family="Times,serif" font-size="14.00">_run_process_action_callbacks</text>
</g>
<!-- HomeController -->
<g id="node5" class="node"><title>HomeController</title>
<polyline fill="none" stroke="black" points="13,-199.5 102,-199.5 "/>
<path fill="none" stroke="black" d="M102,-199.5C108,-199.5 114,-205.5 114,-211.5"/>
<polyline fill="none" stroke="black" points="114,-211.5 114,-295.5 "/>
<path fill="none" stroke="black" d="M114,-295.5C114,-301.5 108,-307.5 102,-307.5"/>
<polyline fill="none" stroke="black" points="102,-307.5 13,-307.5 "/>
<path fill="none" stroke="black" d="M13,-307.5C7,-307.5 1,-301.5 1,-295.5"/>
<polyline fill="none" stroke="black" points="1,-295.5 1,-211.5 "/>
<path fill="none" stroke="black" d="M1,-211.5C1,-205.5 7,-199.5 13,-199.5"/>
<text text-anchor="middle" x="57.5" y="-290.9" font-family="Times,serif" font-size="14.00">HomeController</text>
<polyline fill="none" stroke="black" points="1,-284.5 114,-284.5 "/>
<text text-anchor="start" x="9" y="-267.9" font-family="Times,serif" font-size="14.00">index</text>
<text text-anchor="start" x="9" y="-252.9" font-family="Times,serif" font-size="14.00">login</text>
<polyline fill="none" stroke="black" points="1,-246.5 114,-246.5 "/>
<polyline fill="none" stroke="black" points="1,-222.5 114,-222.5 "/>
<text text-anchor="start" x="9" y="-205.9" font-family="Times,serif" font-size="14.00">_layout</text>
</g>
</g>
</svg>
