<?xml version="1.0" encoding="UTF-8" standalone="no"?>
<!DOCTYPE svg PUBLIC "-//W3C//DTD SVG 1.1//EN"
 "http://www.w3.org/Graphics/SVG/1.1/DTD/svg11.dtd">
<!-- Generated by graphviz version 2.26.3 (20100126.1600)
 -->
<!-- Title: models_diagram Pages: 1 -->
<svg width="1871pt" height="322pt"
 viewBox="0.00 0.00 1871.00 322.00" xmlns="http://www.w3.org/2000/svg" xmlns:xlink="http://www.w3.org/1999/xlink">
<g id="graph1" class="graph" transform="scale(1 1) rotate(0) translate(4 318)">
<title>models_diagram</title>
<polygon fill="white" stroke="white" points="-4,5 -4,-318 1868,-318 1868,5 -4,5"/>
<!-- _diagram_info -->
<g id="node1" class="node"><title>_diagram_info</title>
<text text-anchor="start" x="980.5" y="-298.3" font-family="Times,serif" font-size="13.00">Models diagram</text>
<text text-anchor="start" x="980.5" y="-284.3" font-family="Times,serif" font-size="13.00">Date: Mar 12 2011 &#45; 16:49</text>
<text text-anchor="start" x="980.5" y="-270.3" font-family="Times,serif" font-size="13.00">Migration version: 0</text>
<text text-anchor="start" x="980.5" y="-256.3" font-family="Times,serif" font-size="13.00">Generated by RailRoady 1.0.1</text>
<text text-anchor="start" x="980.5" y="-242.3" font-family="Times,serif" font-size="13.00">http://railroady.prestonlee.com</text>
</g>
<!-- Account -->
<g id="node2" class="node"><title>Account</title>
<ellipse fill="none" stroke="black" cx="652" cy="-180" rx="42.2463" ry="18"/>
<text text-anchor="middle" x="652" y="-174.9" font-family="Times,serif" font-size="14.00">Account</text>
</g>
<!-- Account&#45;&gt;Account -->
<g id="edge14" class="edge"><title>Account&#45;&gt;Account</title>
<path fill="none" stroke="black" d="M701.069,-185.973C707.635,-184.964 712,-182.973 712,-180 712,-177.027 707.635,-175.036 701.069,-174.027"/>
<polygon fill="black" stroke="black" points="700.924,-185.984 690.613,-182.253 695.939,-186.362 690.953,-186.74 690.953,-186.74 690.953,-186.74 695.939,-186.362 691.293,-191.227 700.924,-185.984 700.924,-185.984"/>
<polygon fill="black" stroke="black" points="700.924,-174.016 691.293,-168.773 695.939,-173.638 690.953,-173.26 690.953,-173.26 690.953,-173.26 695.939,-173.638 690.613,-177.747 700.924,-174.016 700.924,-174.016"/>
<text text-anchor="middle" x="782" y="-174.9" font-family="Times,serif" font-size="14.00">people_that_interest_me</text>
</g>
<!-- Autofinger -->
<g id="node4" class="node"><title>Autofinger</title>
<ellipse fill="none" stroke="black" cx="702" cy="-92" rx="51.9954" ry="18"/>
<text text-anchor="middle" x="702" y="-86.9" font-family="Times,serif" font-size="14.00">Autofinger</text>
</g>
<!-- Account&#45;&gt;Autofinger -->
<g id="edge10" class="edge"><title>Account&#45;&gt;Autofinger</title>
<path fill="none" stroke="black" d="M666.205,-154.999C672.672,-143.617 680.333,-130.135 686.904,-118.569"/>
<ellipse fill="none" stroke="black" cx="664.094" cy="-158.714" rx="4.00002" ry="4.00002"/>
<polygon fill="black" stroke="black" points="686.957,-118.476 695.809,-112.005 689.427,-114.129 691.897,-109.782 691.897,-109.782 691.897,-109.782 689.427,-114.129 687.984,-107.559 686.957,-118.476 686.957,-118.476"/>
<text text-anchor="middle" x="735.5" y="-130.9" font-family="Times,serif" font-size="14.00">interests_in_others</text>
</g>
<!-- AvailLink -->
<g id="node5" class="node"><title>AvailLink</title>
<ellipse fill="none" stroke="black" cx="1118" cy="-92" rx="48.2431" ry="18"/>
<text text-anchor="middle" x="1118" y="-86.9" font-family="Times,serif" font-size="14.00">AvailLink</text>
</g>
<!-- Account&#45;&gt;AvailLink -->
<g id="edge4" class="edge"><title>Account&#45;&gt;AvailLink</title>
<path fill="none" stroke="black" d="M704.411,-179.212C798.903,-177.155 993.782,-169.822 1056,-144 1070.83,-137.847 1084.77,-126.827 1095.66,-116.51"/>
<polygon fill="black" stroke="black" points="704.217,-179.216 694.127,-174.923 699.218,-179.319 694.219,-179.422 694.219,-179.422 694.219,-179.422 699.218,-179.319 694.312,-183.921 704.217,-179.216 704.217,-179.216"/>
<polygon fill="black" stroke="black" points="1095.93,-116.247 1106.2,-112.396 1099.48,-112.724 1103.03,-109.202 1103.03,-109.202 1103.03,-109.202 1099.48,-112.724 1099.86,-106.008 1095.93,-116.247 1095.93,-116.247"/>
</g>
<!-- BoardVote -->
<g id="node6" class="node"><title>BoardVote</title>
<ellipse fill="none" stroke="black" cx="227" cy="-92" rx="50.8469" ry="18"/>
<text text-anchor="middle" x="227" y="-86.9" font-family="Times,serif" font-size="14.00">BoardVote</text>
</g>
<!-- Account&#45;&gt;BoardVote -->
<g id="edge18" class="edge"><title>Account&#45;&gt;BoardVote</title>
<path fill="none" stroke="black" d="M601.84,-178.485C516.48,-175.327 346.88,-166.38 292,-144 276.561,-137.704 261.836,-126.521 250.317,-116.135"/>
<ellipse fill="none" stroke="black" cx="606.083" cy="-178.637" rx="4" ry="4"/>
<polygon fill="black" stroke="black" points="250.167,-115.995 245.969,-105.864 246.526,-112.568 242.885,-109.142 242.885,-109.142 242.885,-109.142 246.526,-112.568 239.801,-112.419 250.167,-115.995 250.167,-115.995"/>
</g>
<!-- Display -->
<g id="node7" class="node"><title>Display</title>
<ellipse fill="none" stroke="black" cx="119" cy="-92" rx="39.1446" ry="18"/>
<text text-anchor="middle" x="119" y="-86.9" font-family="Times,serif" font-size="14.00">Display</text>
</g>
<!-- Account&#45;&gt;Display -->
<g id="edge2" class="edge"><title>Account&#45;&gt;Display</title>
<path fill="none" stroke="black" d="M602.129,-176.93C512.205,-171.138 326.354,-157.923 263,-144 225.033,-135.656 183.449,-119.874 154.772,-107.876"/>
<ellipse fill="none" stroke="black" cx="606.272" cy="-177.195" rx="4" ry="4"/>
<ellipse fill="black" stroke="black" cx="150.723" cy="-106.162" rx="4.00001" ry="4.00001"/>
</g>
<!-- MainBoard -->
<g id="node9" class="node"><title>MainBoard</title>
<ellipse fill="none" stroke="black" cx="386" cy="-92" rx="52.1439" ry="18"/>
<text text-anchor="middle" x="386" y="-86.9" font-family="Times,serif" font-size="14.00">MainBoard</text>
</g>
<!-- Account&#45;&gt;MainBoard -->
<g id="edge16" class="edge"><title>Account&#45;&gt;MainBoard</title>
<path fill="none" stroke="black" d="M610.688,-166.333C562.757,-150.476 483.877,-124.38 433.467,-107.703"/>
<ellipse fill="none" stroke="black" cx="614.783" cy="-167.687" rx="4.00001" ry="4.00001"/>
<polygon fill="black" stroke="black" points="433.277,-107.64 425.196,-100.227 428.53,-106.07 423.783,-104.499 423.783,-104.499 423.783,-104.499 428.53,-106.07 422.369,-108.772 433.277,-107.64 433.277,-107.64"/>
</g>
<!-- OptLink -->
<g id="node10" class="node"><title>OptLink</title>
<ellipse fill="none" stroke="black" cx="1054" cy="-18" rx="41.0951" ry="18"/>
<text text-anchor="middle" x="1054" y="-12.9" font-family="Times,serif" font-size="14.00">OptLink</text>
</g>
<!-- Account&#45;&gt;OptLink -->
<g id="edge22" class="edge"><title>Account&#45;&gt;OptLink</title>
<path fill="none" stroke="black" d="M701.775,-176.796C791.591,-170.039 975.831,-151.41 1023,-110 1041.23,-93.9973 1048.76,-66.9122 1051.86,-46.2623"/>
<ellipse fill="none" stroke="black" cx="697.635" cy="-177.101" rx="4" ry="4"/>
<polygon fill="black" stroke="black" points="1051.88,-46.0677 1057.58,-36.6951 1052.5,-41.1054 1053.11,-36.1432 1053.11,-36.1432 1053.11,-36.1432 1052.5,-41.1054 1048.64,-35.5913 1051.88,-46.0677 1051.88,-46.0677"/>
</g>
<!-- Permission -->
<g id="node11" class="node"><title>Permission</title>
<ellipse fill="none" stroke="black" cx="508" cy="-92" rx="52.1439" ry="18"/>
<text text-anchor="middle" x="508" y="-86.9" font-family="Times,serif" font-size="14.00">Permission</text>
</g>
<!-- Account&#45;&gt;Permission -->
<g id="edge8" class="edge"><title>Account&#45;&gt;Permission</title>
<path fill="none" stroke="black" d="M620.556,-160.784C597.067,-146.43 565.032,-126.853 541.143,-112.254"/>
<ellipse fill="none" stroke="black" cx="624.159" cy="-162.986" rx="4.00002" ry="4.00002"/>
<ellipse fill="black" stroke="black" cx="537.423" cy="-109.981" rx="4.00002" ry="4.00002"/>
</g>
<!-- Plan -->
<g id="node12" class="node"><title>Plan</title>
<ellipse fill="none" stroke="black" cx="605" cy="-92" rx="26.8013" ry="18"/>
<text text-anchor="middle" x="605" y="-86.9" font-family="Times,serif" font-size="14.00">Plan</text>
</g>
<!-- Account&#45;&gt;Plan -->
<g id="edge6" class="edge"><title>Account&#45;&gt;Plan</title>
<path fill="none" stroke="black" d="M638.594,-154.9C632.123,-142.784 624.391,-128.307 617.977,-116.298"/>
<ellipse fill="none" stroke="black" cx="640.604" cy="-158.664" rx="4.00002" ry="4.00002"/>
<ellipse fill="black" stroke="black" cx="616.062" cy="-112.711" rx="4.00002" ry="4.00002"/>
</g>
<!-- PollVote -->
<g id="node15" class="node"><title>PollVote</title>
<ellipse fill="none" stroke="black" cx="1229" cy="-92" rx="44.846" ry="18"/>
<text text-anchor="middle" x="1229" y="-86.9" font-family="Times,serif" font-size="14.00">PollVote</text>
</g>
<!-- Account&#45;&gt;PollVote -->
<g id="edge12" class="edge"><title>Account&#45;&gt;PollVote</title>
<path fill="none" stroke="black" d="M702.314,-177.46C800.093,-172.25 1012.45,-159.531 1084,-144 1120.75,-136.024 1160.87,-121.123 1189.57,-109.31"/>
<ellipse fill="none" stroke="black" cx="698.057" cy="-177.685" rx="4" ry="4"/>
<polygon fill="black" stroke="black" points="1189.62,-109.29 1200.58,-109.589 1194.24,-107.363 1198.85,-105.437 1198.85,-105.437 1198.85,-105.437 1194.24,-107.363 1197.12,-101.284 1189.62,-109.29 1189.62,-109.29"/>
</g>
<!-- Stylesheet -->
<g id="node18" class="node"><title>Stylesheet</title>
<ellipse fill="none" stroke="black" cx="821" cy="-92" rx="48.8967" ry="18"/>
<text text-anchor="middle" x="821" y="-86.9" font-family="Times,serif" font-size="14.00">Stylesheet</text>
</g>
<!-- Account&#45;&gt;Stylesheet -->
<g id="edge24" class="edge"><title>Account&#45;&gt;Stylesheet</title>
<path fill="none" stroke="black" d="M699.814,-172.037C734.765,-165.443 778.488,-155.343 793,-144 801.669,-137.224 807.991,-126.992 812.409,-117.391"/>
<ellipse fill="none" stroke="black" cx="695.531" cy="-172.828" rx="4.00001" ry="4.00001"/>
<ellipse fill="black" stroke="black" cx="814.004" cy="-113.593" rx="4.00002" ry="4.00002"/>
</g>
<!-- SubBoard -->
<g id="node19" class="node"><title>SubBoard</title>
<ellipse fill="none" stroke="black" cx="333" cy="-18" rx="46.7958" ry="18"/>
<text text-anchor="middle" x="333" y="-12.9" font-family="Times,serif" font-size="14.00">SubBoard</text>
</g>
<!-- Account&#45;&gt;SubBoard -->
<g id="edge20" class="edge"><title>Account&#45;&gt;SubBoard</title>
<path fill="none" stroke="black" d="M602.291,-176.788C519.565,-170.294 359.312,-152.434 325,-110 310.599,-92.1894 314.762,-65.606 321.255,-45.588"/>
<ellipse fill="none" stroke="black" cx="606.301" cy="-177.095" rx="4" ry="4"/>
<polygon fill="black" stroke="black" points="321.29,-45.4905 328.903,-37.5978 322.979,-40.7843 324.667,-36.078 324.667,-36.078 324.667,-36.078 322.979,-40.7843 320.432,-34.5583 321.29,-45.4905 321.29,-45.4905"/>
</g>
<!-- ViewedSecret -->
<g id="node22" class="node"><title>ViewedSecret</title>
<ellipse fill="none" stroke="black" cx="951" cy="-92" rx="63.1928" ry="18"/>
<text text-anchor="middle" x="951" y="-86.9" font-family="Times,serif" font-size="14.00">ViewedSecret</text>
</g>
<!-- Account&#45;&gt;ViewedSecret -->
<g id="edge26" class="edge"><title>Account&#45;&gt;ViewedSecret</title>
<path fill="none" stroke="black" d="M699.049,-171.408C731.63,-165.006 775.831,-155.42 814,-144 846.055,-134.409 881.332,-120.949 908.061,-110.126"/>
<ellipse fill="none" stroke="black" cx="694.954" cy="-172.204" rx="4.00001" ry="4.00001"/>
<ellipse fill="black" stroke="black" cx="912.011" cy="-108.514" rx="4.00001" ry="4.00001"/>
</g>
<!-- AccountSession -->
<g id="node3" class="node"><title>AccountSession</title>
<polygon fill="none" stroke="black" points="1463,-198 1355,-198 1355,-162 1463,-162 1463,-198"/>
<text text-anchor="middle" x="1409" y="-174.9" font-family="Times,serif" font-size="14.00">AccountSession</text>
</g>
<!-- AvailLink&#45;&gt;OptLink -->
<g id="edge30" class="edge"><title>AvailLink&#45;&gt;OptLink</title>
<path fill="none" stroke="black" d="M1097.82,-68.6709C1090.68,-60.4164 1082.63,-51.1056 1075.4,-42.7381"/>
<ellipse fill="none" stroke="black" cx="1100.54" cy="-71.8114" rx="4.00002" ry="4.00002"/>
<polygon fill="black" stroke="black" points="1075.3,-42.6337 1072.17,-32.1263 1072.03,-38.8518 1068.76,-35.07 1068.76,-35.07 1068.76,-35.07 1072.03,-38.8518 1065.36,-38.0137 1075.3,-42.6337 1075.3,-42.6337"/>
</g>
<!-- Interface -->
<g id="node8" class="node"><title>Interface</title>
<ellipse fill="none" stroke="black" cx="43" cy="-180" rx="43.0456" ry="18"/>
<text text-anchor="middle" x="43" y="-174.9" font-family="Times,serif" font-size="14.00">Interface</text>
</g>
<!-- Interface&#45;&gt;Display -->
<g id="edge32" class="edge"><title>Interface&#45;&gt;Display</title>
<path fill="none" stroke="black" d="M62.9743,-156.872C73.6354,-144.527 86.7601,-129.33 97.6259,-116.749"/>
<ellipse fill="none" stroke="black" cx="60.2681" cy="-160.005" rx="4.00002" ry="4.00002"/>
<polygon fill="black" stroke="black" points="97.8552,-116.483 107.797,-111.857 101.123,-112.699 104.391,-108.915 104.391,-108.915 104.391,-108.915 101.123,-112.699 100.986,-105.974 97.8552,-116.483 97.8552,-116.483"/>
</g>
<!-- MainBoard&#45;&gt;SubBoard -->
<g id="edge34" class="edge"><title>MainBoard&#45;&gt;SubBoard</title>
<path fill="none" stroke="black" d="M368.66,-67.7897C363.102,-60.0287 356.93,-51.4117 351.305,-43.5576"/>
<ellipse fill="none" stroke="black" cx="371.111" cy="-71.2111" rx="4.00002" ry="4.00002"/>
<polygon fill="black" stroke="black" points="351.293,-43.541 349.129,-32.7908 348.382,-39.476 345.47,-35.4111 345.47,-35.4111 345.47,-35.4111 348.382,-39.476 341.812,-38.0314 351.293,-43.541 351.293,-43.541"/>
</g>
<!-- PollChoice -->
<g id="node13" class="node"><title>PollChoice</title>
<ellipse fill="none" stroke="black" cx="1229" cy="-180" rx="53.9452" ry="18"/>
<text text-anchor="middle" x="1229" y="-174.9" font-family="Times,serif" font-size="14.00">PollChoice</text>
</g>
<!-- PollChoice&#45;&gt;PollVote -->
<g id="edge36" class="edge"><title>PollChoice&#45;&gt;PollVote</title>
<path fill="none" stroke="black" d="M1229,-153.488C1229,-143.002 1229,-130.934 1229,-120.281"/>
<ellipse fill="none" stroke="black" cx="1229" cy="-157.766" rx="4" ry="4"/>
<polygon fill="black" stroke="black" points="1229,-120.21 1233.5,-110.21 1229,-115.21 1229,-110.21 1229,-110.21 1229,-110.21 1229,-115.21 1224.5,-110.21 1229,-120.21 1229,-120.21"/>
</g>
<!-- PollQuestion -->
<g id="node14" class="node"><title>PollQuestion</title>
<ellipse fill="none" stroke="black" cx="1229" cy="-275" rx="59.9451" ry="18"/>
<text text-anchor="middle" x="1229" y="-269.9" font-family="Times,serif" font-size="14.00">PollQuestion</text>
</g>
<!-- PollQuestion&#45;&gt;PollChoice -->
<g id="edge38" class="edge"><title>PollQuestion&#45;&gt;PollChoice</title>
<path fill="none" stroke="black" d="M1229,-248.275C1229,-235.8 1229,-220.945 1229,-208.282"/>
<ellipse fill="none" stroke="black" cx="1229" cy="-252.683" rx="4" ry="4"/>
<polygon fill="black" stroke="black" points="1229,-208.261 1233.5,-198.261 1229,-203.261 1229,-198.261 1229,-198.261 1229,-198.261 1229,-203.261 1224.5,-198.261 1229,-208.261 1229,-208.261"/>
</g>
<!-- Secret -->
<g id="node16" class="node"><title>Secret</title>
<ellipse fill="none" stroke="black" cx="1563" cy="-275" rx="33.9477" ry="18"/>
<text text-anchor="middle" x="1563" y="-269.9" font-family="Times,serif" font-size="14.00">Secret</text>
</g>
<!-- Style -->
<g id="node17" class="node"><title>Style</title>
<ellipse fill="none" stroke="black" cx="134" cy="-180" rx="30.0465" ry="18"/>
<text text-anchor="middle" x="134" y="-174.9" font-family="Times,serif" font-size="14.00">Style</text>
</g>
<!-- Style&#45;&gt;Display -->
<g id="edge40" class="edge"><title>Style&#45;&gt;Display</title>
<path fill="none" stroke="black" d="M129.481,-153.488C127.694,-143.002 125.636,-130.934 123.821,-120.281"/>
<ellipse fill="none" stroke="black" cx="130.22" cy="-157.823" rx="4.00001" ry="4.00001"/>
<polygon fill="black" stroke="black" points="123.784,-120.068 126.54,-109.454 122.944,-115.139 122.104,-110.21 122.104,-110.21 122.104,-110.21 122.944,-115.139 117.668,-110.966 123.784,-120.068 123.784,-120.068"/>
</g>
<!-- System -->
<g id="node20" class="node"><title>System</title>
<ellipse fill="none" stroke="black" cx="1653" cy="-275" rx="37.8486" ry="18"/>
<text text-anchor="middle" x="1653" y="-269.9" font-family="Times,serif" font-size="14.00">System</text>
</g>
<!-- TentativeAccount -->
<g id="node21" class="node"><title>TentativeAccount</title>
<ellipse fill="none" stroke="black" cx="1786" cy="-275" rx="76.8441" ry="18"/>
<text text-anchor="middle" x="1786" y="-269.9" font-family="Times,serif" font-size="14.00">TentativeAccount</text>
</g>
<!-- Authlogic::Session::Base -->
<g id="node36" class="node"><title>Authlogic::Session::Base</title>
<ellipse fill="none" stroke="black" cx="1409" cy="-275" rx="102.19" ry="18"/>
<text text-anchor="middle" x="1409" y="-269.9" font-family="Times,serif" font-size="14.00">Authlogic::Session::Base</text>
</g>
<!-- Authlogic::Session::Base&#45;&gt;AccountSession -->
<g id="edge28" class="edge"><title>Authlogic::Session::Base&#45;&gt;AccountSession</title>
<path fill="none" stroke="black" d="M1409,-256.683C1409,-239.861 1409,-215.065 1409,-198.261"/>
</g>
</g>
</svg>
