<?xml version="1.0" encoding="UTF-8" standalone="no"?>
<!DOCTYPE svg PUBLIC "-//W3C//DTD SVG 1.1//EN"
 "http://www.w3.org/Graphics/SVG/1.1/DTD/svg11.dtd">
<!-- Generated by graphviz version 2.26.3 (20100126.1600)
 -->
<!-- Title: models_diagram Pages: 1 -->
<svg width="1933pt" height="248pt"
 viewBox="0.00 0.00 1933.00 248.00" xmlns="http://www.w3.org/2000/svg" xmlns:xlink="http://www.w3.org/1999/xlink">
<g id="graph1" class="graph" transform="scale(1 1) rotate(0) translate(4 244)">
<title>models_diagram</title>
<polygon fill="white" stroke="white" points="-4,5 -4,-244 1930,-244 1930,5 -4,5"/>
<!-- _diagram_info -->
<g id="node1" class="node"><title>_diagram_info</title>
<text text-anchor="start" x="7.5" y="-224.3" font-family="Times,serif" font-size="13.00">Models diagram</text>
<text text-anchor="start" x="7.5" y="-210.3" font-family="Times,serif" font-size="13.00">Date: Feb 24 2011 &#45; 13:04</text>
<text text-anchor="start" x="7.5" y="-196.3" font-family="Times,serif" font-size="13.00">Migration version: 0</text>
<text text-anchor="start" x="7.5" y="-182.3" font-family="Times,serif" font-size="13.00">Generated by RailRoady 1.0.1</text>
<text text-anchor="start" x="7.5" y="-168.3" font-family="Times,serif" font-size="13.00">http://railroady.prestonlee.com</text>
</g>
<!-- Account -->
<g id="node2" class="node"><title>Account</title>
<ellipse fill="none" stroke="black" cx="813" cy="-201" rx="42.2463" ry="18"/>
<text text-anchor="middle" x="813" y="-195.9" font-family="Times,serif" font-size="14.00">Account</text>
</g>
<!-- Account&#45;&gt;Account -->
<g id="edge12" class="edge"><title>Account&#45;&gt;Account</title>
<path fill="none" stroke="black" d="M855.116,-212.807C865.374,-211.922 873,-207.986 873,-201 873,-194.014 865.374,-190.078 855.116,-189.193"/>
<polygon fill="black" stroke="black" points="855.099,-212.807 845.119,-208.263 850.099,-212.785 845.099,-212.763 845.099,-212.763 845.099,-212.763 850.099,-212.785 845.079,-217.263 855.099,-212.807 855.099,-212.807"/>
<polygon fill="black" stroke="black" points="855.099,-189.193 845.079,-184.737 850.099,-189.215 845.099,-189.237 845.099,-189.237 845.099,-189.237 850.099,-189.215 845.119,-193.737 855.099,-189.193 855.099,-189.193"/>
<text text-anchor="middle" x="943" y="-195.9" font-family="Times,serif" font-size="14.00">people_that_interest_me</text>
</g>
<!-- Autofinger -->
<g id="node3" class="node"><title>Autofinger</title>
<ellipse fill="none" stroke="black" cx="594" cy="-92" rx="51.9954" ry="18"/>
<text text-anchor="middle" x="594" y="-86.9" font-family="Times,serif" font-size="14.00">Autofinger</text>
</g>
<!-- Account&#45;&gt;Autofinger -->
<g id="edge8" class="edge"><title>Account&#45;&gt;Autofinger</title>
<path fill="none" stroke="black" d="M765.953,-192.532C729.378,-184.356 678.548,-169.388 640,-144 629.412,-137.026 619.759,-127.004 612.06,-117.616"/>
<ellipse fill="none" stroke="black" cx="770.087" cy="-193.426" rx="4.00001" ry="4.00001"/>
<polygon fill="black" stroke="black" points="611.974,-117.507 609.37,-106.854 608.898,-113.564 605.822,-109.622 605.822,-109.622 605.822,-109.622 608.898,-113.564 602.275,-112.39 611.974,-117.507 611.974,-117.507"/>
<text text-anchor="middle" x="693.5" y="-130.9" font-family="Times,serif" font-size="14.00">interests_in_others</text>
</g>
<!-- BoardVote -->
<g id="node5" class="node"><title>BoardVote</title>
<ellipse fill="none" stroke="black" cx="1277" cy="-92" rx="50.8469" ry="18"/>
<text text-anchor="middle" x="1277" y="-86.9" font-family="Times,serif" font-size="14.00">BoardVote</text>
</g>
<!-- Account&#45;&gt;BoardVote -->
<g id="edge16" class="edge"><title>Account&#45;&gt;BoardVote</title>
<path fill="none" stroke="black" d="M858.996,-191.733C934.239,-176.328 1088.17,-143.79 1217,-110 1220.85,-108.989 1224.83,-107.899 1228.83,-106.773"/>
<ellipse fill="none" stroke="black" cx="855.008" cy="-192.547" rx="4.00001" ry="4.00001"/>
<polygon fill="black" stroke="black" points="1229.09,-106.695 1239.95,-108.248 1233.9,-105.309 1238.7,-103.924 1238.7,-103.924 1238.7,-103.924 1233.9,-105.309 1237.46,-99.6 1229.09,-106.695 1229.09,-106.695"/>
</g>
<!-- Display -->
<g id="node6" class="node"><title>Display</title>
<ellipse fill="none" stroke="black" cx="325" cy="-92" rx="39.1446" ry="18"/>
<text text-anchor="middle" x="325" y="-86.9" font-family="Times,serif" font-size="14.00">Display</text>
</g>
<!-- Account&#45;&gt;Display -->
<g id="edge2" class="edge"><title>Account&#45;&gt;Display</title>
<path fill="none" stroke="black" d="M763.19,-198.437C663.882,-192.687 445.025,-176.632 378,-144 364.467,-137.411 352.253,-126.015 342.97,-115.567"/>
<ellipse fill="none" stroke="black" cx="767.283" cy="-198.67" rx="4" ry="4"/>
<ellipse fill="black" stroke="black" cx="340.176" cy="-112.283" rx="4.00002" ry="4.00002"/>
</g>
<!-- MainBoard -->
<g id="node8" class="node"><title>MainBoard</title>
<ellipse fill="none" stroke="black" cx="472" cy="-92" rx="52.1439" ry="18"/>
<text text-anchor="middle" x="472" y="-86.9" font-family="Times,serif" font-size="14.00">MainBoard</text>
</g>
<!-- Account&#45;&gt;MainBoard -->
<g id="edge10" class="edge"><title>Account&#45;&gt;MainBoard</title>
<path fill="none" stroke="black" d="M769.442,-189.045C729.777,-177.975 669.688,-160.744 618,-144 583.997,-132.985 545.971,-119.4 517.252,-108.878"/>
<ellipse fill="none" stroke="black" cx="773.732" cy="-190.239" rx="4.00001" ry="4.00001"/>
<polygon fill="black" stroke="black" points="516.89,-108.745 509.057,-101.07 512.197,-107.019 507.504,-105.293 507.504,-105.293 507.504,-105.293 512.197,-107.019 505.951,-109.517 516.89,-108.745 516.89,-108.745"/>
</g>
<!-- OptLink -->
<g id="node9" class="node"><title>OptLink</title>
<ellipse fill="none" stroke="black" cx="1387" cy="-92" rx="41.0951" ry="18"/>
<text text-anchor="middle" x="1387" y="-86.9" font-family="Times,serif" font-size="14.00">OptLink</text>
</g>
<!-- Account&#45;&gt;OptLink -->
<g id="edge20" class="edge"><title>Account&#45;&gt;OptLink</title>
<path fill="none" stroke="black" d="M861.742,-195.408C955.069,-184.071 1165.01,-155.523 1337,-110 1340.17,-109.162 1343.42,-108.21 1346.66,-107.192"/>
<ellipse fill="none" stroke="black" cx="857.586" cy="-195.909" rx="4.00001" ry="4.00001"/>
<polygon fill="black" stroke="black" points="1346.83,-107.136 1357.74,-108.26 1351.58,-105.562 1356.33,-103.988 1356.33,-103.988 1356.33,-103.988 1351.58,-105.562 1354.91,-99.7172 1346.83,-107.136 1346.83,-107.136"/>
</g>
<!-- Permission -->
<g id="node10" class="node"><title>Permission</title>
<ellipse fill="none" stroke="black" cx="716" cy="-92" rx="52.1439" ry="18"/>
<text text-anchor="middle" x="716" y="-86.9" font-family="Times,serif" font-size="14.00">Permission</text>
</g>
<!-- Account&#45;&gt;Permission -->
<g id="edge24" class="edge"><title>Account&#45;&gt;Permission</title>
<path fill="none" stroke="black" d="M792.451,-177.909C776.178,-159.623 753.532,-134.175 737.114,-115.726"/>
<ellipse fill="none" stroke="black" cx="795.185" cy="-180.981" rx="4.00002" ry="4.00002"/>
<ellipse fill="black" stroke="black" cx="734.029" cy="-112.26" rx="4.00002" ry="4.00002"/>
</g>
<!-- Plan -->
<g id="node11" class="node"><title>Plan</title>
<ellipse fill="none" stroke="black" cx="813" cy="-92" rx="26.8013" ry="18"/>
<text text-anchor="middle" x="813" y="-86.9" font-family="Times,serif" font-size="14.00">Plan</text>
</g>
<!-- Account&#45;&gt;Plan -->
<g id="edge22" class="edge"><title>Account&#45;&gt;Plan</title>
<path fill="none" stroke="black" d="M813,-174.436C813,-157.472 813,-135.557 813,-118.588"/>
<ellipse fill="none" stroke="black" cx="813" cy="-178.51" rx="4" ry="4"/>
<ellipse fill="black" stroke="black" cx="813" cy="-114.217" rx="4" ry="4"/>
</g>
<!-- PollVote -->
<g id="node14" class="node"><title>PollVote</title>
<ellipse fill="none" stroke="black" cx="903" cy="-92" rx="44.846" ry="18"/>
<text text-anchor="middle" x="903" y="-86.9" font-family="Times,serif" font-size="14.00">PollVote</text>
</g>
<!-- Account&#45;&gt;PollVote -->
<g id="edge4" class="edge"><title>Account&#45;&gt;PollVote</title>
<path fill="none" stroke="black" d="M832.286,-177.643C846.979,-159.848 867.177,-135.386 882.226,-117.16"/>
<ellipse fill="none" stroke="black" cx="829.609" cy="-180.884" rx="4.00002" ry="4.00002"/>
<polygon fill="black" stroke="black" points="882.372,-116.983 892.209,-112.137 885.556,-113.127 888.739,-109.271 888.739,-109.271 888.739,-109.271 885.556,-113.127 885.269,-106.406 882.372,-116.983 882.372,-116.983"/>
</g>
<!-- Stylesheet -->
<g id="node17" class="node"><title>Stylesheet</title>
<ellipse fill="none" stroke="black" cx="1015" cy="-92" rx="48.8967" ry="18"/>
<text text-anchor="middle" x="1015" y="-86.9" font-family="Times,serif" font-size="14.00">Stylesheet</text>
</g>
<!-- Account&#45;&gt;Stylesheet -->
<g id="edge6" class="edge"><title>Account&#45;&gt;Stylesheet</title>
<path fill="none" stroke="black" d="M846.458,-182.946C883.395,-163.015 942.582,-131.077 980.09,-110.837"/>
<ellipse fill="none" stroke="black" cx="842.928" cy="-184.851" rx="4.00002" ry="4.00002"/>
<ellipse fill="black" stroke="black" cx="983.77" cy="-108.852" rx="4.00002" ry="4.00002"/>
</g>
<!-- SubBoard -->
<g id="node18" class="node"><title>SubBoard</title>
<ellipse fill="none" stroke="black" cx="418" cy="-18" rx="46.7958" ry="18"/>
<text text-anchor="middle" x="418" y="-12.9" font-family="Times,serif" font-size="14.00">SubBoard</text>
</g>
<!-- Account&#45;&gt;SubBoard -->
<g id="edge14" class="edge"><title>Account&#45;&gt;SubBoard</title>
<path fill="none" stroke="black" d="M763.283,-197.287C665.665,-188.853 454.617,-164.594 411,-110 396.716,-92.121 400.555,-65.5455 406.737,-45.5479"/>
<ellipse fill="none" stroke="black" cx="767.537" cy="-197.647" rx="4" ry="4"/>
<polygon fill="black" stroke="black" points="406.751,-45.508 414.252,-37.5092 408.373,-40.7785 409.996,-36.049 409.996,-36.049 409.996,-36.049 408.373,-40.7785 405.739,-34.5889 406.751,-45.508 406.751,-45.508"/>
</g>
<!-- ViewedSecret -->
<g id="node21" class="node"><title>ViewedSecret</title>
<ellipse fill="none" stroke="black" cx="1145" cy="-92" rx="63.1928" ry="18"/>
<text text-anchor="middle" x="1145" y="-86.9" font-family="Times,serif" font-size="14.00">ViewedSecret</text>
</g>
<!-- Account&#45;&gt;ViewedSecret -->
<g id="edge18" class="edge"><title>Account&#45;&gt;ViewedSecret</title>
<path fill="none" stroke="black" d="M854.196,-187.475C915.381,-167.387 1030.08,-129.729 1095.66,-108.199"/>
<ellipse fill="none" stroke="black" cx="850.154" cy="-188.802" rx="4.00001" ry="4.00001"/>
<ellipse fill="black" stroke="black" cx="1099.61" cy="-106.903" rx="4.00001" ry="4.00001"/>
</g>
<!-- AvailLink -->
<g id="node4" class="node"><title>AvailLink</title>
<ellipse fill="none" stroke="black" cx="1387" cy="-201" rx="48.2431" ry="18"/>
<text text-anchor="middle" x="1387" y="-195.9" font-family="Times,serif" font-size="14.00">AvailLink</text>
</g>
<!-- AvailLink&#45;&gt;OptLink -->
<g id="edge26" class="edge"><title>AvailLink&#45;&gt;OptLink</title>
<path fill="none" stroke="black" d="M1387,-174.436C1387,-158.094 1387,-137.159 1387,-120.476"/>
<ellipse fill="none" stroke="black" cx="1387" cy="-178.51" rx="4" ry="4"/>
<polygon fill="black" stroke="black" points="1387,-120.217 1391.5,-110.217 1387,-115.217 1387,-110.217 1387,-110.217 1387,-110.217 1387,-115.217 1382.5,-110.217 1387,-120.217 1387,-120.217"/>
</g>
<!-- Interface -->
<g id="node7" class="node"><title>Interface</title>
<ellipse fill="none" stroke="black" cx="239" cy="-201" rx="43.0456" ry="18"/>
<text text-anchor="middle" x="239" y="-195.9" font-family="Times,serif" font-size="14.00">Interface</text>
</g>
<!-- Interface&#45;&gt;Display -->
<g id="edge28" class="edge"><title>Interface&#45;&gt;Display</title>
<path fill="none" stroke="black" d="M257.825,-177.141C271.762,-159.476 290.719,-135.449 304.942,-117.423"/>
<ellipse fill="none" stroke="black" cx="255.295" cy="-180.347" rx="4.00002" ry="4.00002"/>
<polygon fill="black" stroke="black" points="305.306,-116.961 315.033,-111.897 308.403,-113.035 311.5,-109.11 311.5,-109.11 311.5,-109.11 308.403,-113.035 307.968,-106.323 305.306,-116.961 305.306,-116.961"/>
</g>
<!-- MainBoard&#45;&gt;SubBoard -->
<g id="edge30" class="edge"><title>MainBoard&#45;&gt;SubBoard</title>
<path fill="none" stroke="black" d="M454.333,-67.7897C448.67,-60.0287 442.381,-51.4117 436.65,-43.5576"/>
<ellipse fill="none" stroke="black" cx="456.845" cy="-71.2319" rx="4.00002" ry="4.00002"/>
<polygon fill="black" stroke="black" points="436.6,-43.489 434.34,-32.7585 433.653,-39.4501 430.705,-35.4111 430.705,-35.4111 430.705,-35.4111 433.653,-39.4501 427.07,-38.0637 436.6,-43.489 436.6,-43.489"/>
</g>
<!-- PollChoice -->
<g id="node12" class="node"><title>PollChoice</title>
<ellipse fill="none" stroke="black" cx="1513" cy="-92" rx="53.9452" ry="18"/>
<text text-anchor="middle" x="1513" y="-86.9" font-family="Times,serif" font-size="14.00">PollChoice</text>
</g>
<!-- PollQuestion -->
<g id="node13" class="node"><title>PollQuestion</title>
<ellipse fill="none" stroke="black" cx="1513" cy="-201" rx="59.9451" ry="18"/>
<text text-anchor="middle" x="1513" y="-195.9" font-family="Times,serif" font-size="14.00">PollQuestion</text>
</g>
<!-- PollQuestion&#45;&gt;PollChoice -->
<g id="edge32" class="edge"><title>PollQuestion&#45;&gt;PollChoice</title>
<path fill="none" stroke="black" d="M1513,-174.436C1513,-158.094 1513,-137.159 1513,-120.476"/>
<ellipse fill="none" stroke="black" cx="1513" cy="-178.51" rx="4" ry="4"/>
<polygon fill="black" stroke="black" points="1513,-120.217 1517.5,-110.217 1513,-115.217 1513,-110.217 1513,-110.217 1513,-110.217 1513,-115.217 1508.5,-110.217 1513,-120.217 1513,-120.217"/>
</g>
<!-- Secret -->
<g id="node15" class="node"><title>Secret</title>
<ellipse fill="none" stroke="black" cx="1625" cy="-201" rx="33.9477" ry="18"/>
<text text-anchor="middle" x="1625" y="-195.9" font-family="Times,serif" font-size="14.00">Secret</text>
</g>
<!-- Style -->
<g id="node16" class="node"><title>Style</title>
<ellipse fill="none" stroke="black" cx="330" cy="-201" rx="30.0465" ry="18"/>
<text text-anchor="middle" x="330" y="-195.9" font-family="Times,serif" font-size="14.00">Style</text>
</g>
<!-- Style&#45;&gt;Display -->
<g id="edge34" class="edge"><title>Style&#45;&gt;Display</title>
<path fill="none" stroke="black" d="M328.803,-174.896C328.048,-158.456 327.075,-137.234 326.302,-120.378"/>
<ellipse fill="none" stroke="black" cx="328.991" cy="-179.005" rx="4" ry="4"/>
<polygon fill="black" stroke="black" points="326.285,-120.015 330.322,-109.82 326.056,-115.021 325.827,-110.026 325.827,-110.026 325.827,-110.026 326.056,-115.021 321.332,-110.232 326.285,-120.015 326.285,-120.015"/>
</g>
<!-- System -->
<g id="node19" class="node"><title>System</title>
<ellipse fill="none" stroke="black" cx="1715" cy="-201" rx="37.8486" ry="18"/>
<text text-anchor="middle" x="1715" y="-195.9" font-family="Times,serif" font-size="14.00">System</text>
</g>
<!-- TentativeAccount -->
<g id="node20" class="node"><title>TentativeAccount</title>
<ellipse fill="none" stroke="black" cx="1848" cy="-201" rx="76.8441" ry="18"/>
<text text-anchor="middle" x="1848" y="-195.9" font-family="Times,serif" font-size="14.00">TentativeAccount</text>
</g>
</g>
</svg>
