<?xml version="1.0" encoding="UTF-8" standalone="no"?>
<!DOCTYPE svg PUBLIC "-//W3C//DTD SVG 1.1//EN"
 "http://www.w3.org/Graphics/SVG/1.1/DTD/svg11.dtd">
<!-- Generated by graphviz version 2.26.3 (20100126.1600)
 -->
<!-- Title: models_diagram Pages: 1 -->
<svg width="2154pt" height="646pt"
 viewBox="0.00 0.00 2154.00 646.00" xmlns="http://www.w3.org/2000/svg" xmlns:xlink="http://www.w3.org/1999/xlink">
<g id="graph1" class="graph" transform="scale(1 1) rotate(0) translate(4 642)">
<title>models_diagram</title>
<polygon fill="white" stroke="white" points="-4,5 -4,-642 2151,-642 2151,5 -4,5"/>
<!-- _diagram_info -->
<g id="node1" class="node"><title>_diagram_info</title>
<text text-anchor="start" x="7.5" y="-502.3" font-family="Times,serif" font-size="13.00">Models diagram</text>
<text text-anchor="start" x="7.5" y="-488.3" font-family="Times,serif" font-size="13.00">Date: Feb 24 2011 &#45; 13:04</text>
<text text-anchor="start" x="7.5" y="-474.3" font-family="Times,serif" font-size="13.00">Migration version: 0</text>
<text text-anchor="start" x="7.5" y="-460.3" font-family="Times,serif" font-size="13.00">Generated by RailRoady 1.0.1</text>
<text text-anchor="start" x="7.5" y="-446.3" font-family="Times,serif" font-size="13.00">http://railroady.prestonlee.com</text>
</g>
<!-- Account -->
<g id="node2" class="node"><title>Account</title>
<polyline fill="none" stroke="black" points="849.5,-321 972.5,-321 "/>
<path fill="none" stroke="black" d="M972.5,-321C978.5,-321 984.5,-327 984.5,-333"/>
<polyline fill="none" stroke="black" points="984.5,-333 984.5,-625 "/>
<path fill="none" stroke="black" d="M984.5,-625C984.5,-631 978.5,-637 972.5,-637"/>
<polyline fill="none" stroke="black" points="972.5,-637 849.5,-637 "/>
<path fill="none" stroke="black" d="M849.5,-637C843.5,-637 837.5,-631 837.5,-625"/>
<polyline fill="none" stroke="black" points="837.5,-625 837.5,-333 "/>
<path fill="none" stroke="black" d="M837.5,-333C837.5,-327 843.5,-321 849.5,-321"/>
<text text-anchor="middle" x="911" y="-620.4" font-family="Times,serif" font-size="14.00">Account</text>
<polyline fill="none" stroke="black" points="837.5,-614 984.5,-614 "/>
<text text-anchor="start" x="845.5" y="-597.4" font-family="Times,serif" font-size="14.00">username :string</text>
<text text-anchor="start" x="845.5" y="-582.4" font-family="Times,serif" font-size="14.00">created :datetime</text>
<text text-anchor="start" x="845.5" y="-567.4" font-family="Times,serif" font-size="14.00">password :string</text>
<text text-anchor="start" x="845.5" y="-552.4" font-family="Times,serif" font-size="14.00">email :string</text>
<text text-anchor="start" x="845.5" y="-537.4" font-family="Times,serif" font-size="14.00">pseudo :string</text>
<text text-anchor="start" x="845.5" y="-522.4" font-family="Times,serif" font-size="14.00">login :datetime</text>
<text text-anchor="start" x="845.5" y="-507.4" font-family="Times,serif" font-size="14.00">changed :datetime</text>
<text text-anchor="start" x="845.5" y="-492.4" font-family="Times,serif" font-size="14.00">poll :integer</text>
<text text-anchor="start" x="845.5" y="-477.4" font-family="Times,serif" font-size="14.00">group_bit :string</text>
<text text-anchor="start" x="845.5" y="-462.4" font-family="Times,serif" font-size="14.00">spec_message :string</text>
<text text-anchor="start" x="845.5" y="-447.4" font-family="Times,serif" font-size="14.00">grad_year :string</text>
<text text-anchor="start" x="845.5" y="-432.4" font-family="Times,serif" font-size="14.00">edit_cols :integer</text>
<text text-anchor="start" x="845.5" y="-417.4" font-family="Times,serif" font-size="14.00">edit_rows :integer</text>
<text text-anchor="start" x="845.5" y="-402.4" font-family="Times,serif" font-size="14.00">webview :string</text>
<text text-anchor="start" x="845.5" y="-387.4" font-family="Times,serif" font-size="14.00">notes_asc :string</text>
<text text-anchor="start" x="845.5" y="-372.4" font-family="Times,serif" font-size="14.00">user_type :string</text>
<text text-anchor="start" x="845.5" y="-357.4" font-family="Times,serif" font-size="14.00">show_images :boolean</text>
<text text-anchor="start" x="845.5" y="-342.4" font-family="Times,serif" font-size="14.00">guest_password :string</text>
<text text-anchor="start" x="845.5" y="-327.4" font-family="Times,serif" font-size="14.00">is_admin :boolean</text>
</g>
<!-- Account&#45;&gt;Account -->
<g id="edge12" class="edge"><title>Account&#45;&gt;Account</title>
<path fill="none" stroke="black" d="M992.85,-504.096C998.536,-498.357 1002,-489.992 1002,-479 1002,-468.008 998.536,-459.643 992.85,-453.904"/>
<polygon fill="black" stroke="black" points="992.718,-504.189 981.955,-506.285 988.635,-507.075 984.552,-509.96 984.552,-509.96 984.552,-509.96 988.635,-507.075 987.149,-513.635 992.718,-504.189 992.718,-504.189"/>
<polygon fill="black" stroke="black" points="992.718,-453.811 987.149,-444.365 988.635,-450.925 984.552,-448.04 984.552,-448.04 984.552,-448.04 988.635,-450.925 981.955,-451.715 992.718,-453.811 992.718,-453.811"/>
<text text-anchor="middle" x="1072" y="-473.9" font-family="Times,serif" font-size="14.00">people_that_interest_me</text>
</g>
<!-- Autofinger -->
<g id="node3" class="node"><title>Autofinger</title>
<polyline fill="none" stroke="black" points="617.5,-146.5 718.5,-146.5 "/>
<path fill="none" stroke="black" d="M718.5,-146.5C724.5,-146.5 730.5,-152.5 730.5,-158.5"/>
<polyline fill="none" stroke="black" points="730.5,-158.5 730.5,-255.5 "/>
<path fill="none" stroke="black" d="M730.5,-255.5C730.5,-261.5 724.5,-267.5 718.5,-267.5"/>
<polyline fill="none" stroke="black" points="718.5,-267.5 617.5,-267.5 "/>
<path fill="none" stroke="black" d="M617.5,-267.5C611.5,-267.5 605.5,-261.5 605.5,-255.5"/>
<polyline fill="none" stroke="black" points="605.5,-255.5 605.5,-158.5 "/>
<path fill="none" stroke="black" d="M605.5,-158.5C605.5,-152.5 611.5,-146.5 617.5,-146.5"/>
<text text-anchor="middle" x="668" y="-250.9" font-family="Times,serif" font-size="14.00">Autofinger</text>
<polyline fill="none" stroke="black" points="605.5,-244.5 730.5,-244.5 "/>
<text text-anchor="start" x="613.5" y="-227.9" font-family="Times,serif" font-size="14.00">owner :integer</text>
<text text-anchor="start" x="613.5" y="-212.9" font-family="Times,serif" font-size="14.00">interest :integer</text>
<text text-anchor="start" x="613.5" y="-197.9" font-family="Times,serif" font-size="14.00">priority :integer</text>
<text text-anchor="start" x="613.5" y="-182.9" font-family="Times,serif" font-size="14.00">updated :string</text>
<text text-anchor="start" x="613.5" y="-167.9" font-family="Times,serif" font-size="14.00">updtime :datetime</text>
<text text-anchor="start" x="613.5" y="-152.9" font-family="Times,serif" font-size="14.00">readtime :datetime</text>
</g>
<!-- Account&#45;&gt;Autofinger -->
<g id="edge8" class="edge"><title>Account&#45;&gt;Autofinger</title>
<path fill="none" stroke="black" d="M830.849,-415.038C794.335,-383.442 752.186,-343.29 720,-302 713.845,-294.104 708,-285.382 702.603,-276.52"/>
<ellipse fill="none" stroke="black" cx="834.093" cy="-417.826" rx="4.00002" ry="4.00002"/>
<polygon fill="black" stroke="black" points="702.443,-276.248 701.237,-265.349 699.902,-271.942 697.361,-267.636 697.361,-267.636 697.361,-267.636 699.902,-271.942 693.486,-269.923 702.443,-276.248 702.443,-276.248"/>
<text text-anchor="middle" x="773.5" y="-288.9" font-family="Times,serif" font-size="14.00">interests_in_others</text>
</g>
<!-- BoardVote -->
<g id="node5" class="node"><title>BoardVote</title>
<polyline fill="none" stroke="black" points="1356,-154 1470,-154 "/>
<path fill="none" stroke="black" d="M1470,-154C1476,-154 1482,-160 1482,-166"/>
<polyline fill="none" stroke="black" points="1482,-166 1482,-248 "/>
<path fill="none" stroke="black" d="M1482,-248C1482,-254 1476,-260 1470,-260"/>
<polyline fill="none" stroke="black" points="1470,-260 1356,-260 "/>
<path fill="none" stroke="black" d="M1356,-260C1350,-260 1344,-254 1344,-248"/>
<polyline fill="none" stroke="black" points="1344,-248 1344,-166 "/>
<path fill="none" stroke="black" d="M1344,-166C1344,-160 1350,-154 1356,-154"/>
<text text-anchor="middle" x="1413" y="-243.4" font-family="Times,serif" font-size="14.00">BoardVote</text>
<polyline fill="none" stroke="black" points="1344,-237 1482,-237 "/>
<text text-anchor="start" x="1352" y="-220.4" font-family="Times,serif" font-size="14.00">userid :integer</text>
<text text-anchor="start" x="1352" y="-205.4" font-family="Times,serif" font-size="14.00">threadid :integer</text>
<text text-anchor="start" x="1352" y="-190.4" font-family="Times,serif" font-size="14.00">messageid :integer</text>
<text text-anchor="start" x="1352" y="-175.4" font-family="Times,serif" font-size="14.00">vote_date :timestamp</text>
<text text-anchor="start" x="1352" y="-160.4" font-family="Times,serif" font-size="14.00">vote :integer</text>
</g>
<!-- Account&#45;&gt;BoardVote -->
<g id="edge16" class="edge"><title>Account&#45;&gt;BoardVote</title>
<path fill="none" stroke="black" d="M992.166,-444.516C1079.49,-406.081 1221.14,-339.82 1335,-268 1336.1,-267.304 1337.21,-266.595 1338.32,-265.875"/>
<ellipse fill="none" stroke="black" cx="988.334" cy="-446.198" rx="4.00002" ry="4.00002"/>
<polygon fill="black" stroke="black" points="1338.54,-265.73 1349.35,-263.901 1342.69,-262.947 1346.84,-260.163 1346.84,-260.163 1346.84,-260.163 1342.69,-262.947 1344.34,-256.425 1338.54,-265.73 1338.54,-265.73"/>
</g>
<!-- Display -->
<g id="node6" class="node"><title>Display</title>
<polyline fill="none" stroke="black" points="292,-176.5 382,-176.5 "/>
<path fill="none" stroke="black" d="M382,-176.5C388,-176.5 394,-182.5 394,-188.5"/>
<polyline fill="none" stroke="black" points="394,-188.5 394,-225.5 "/>
<path fill="none" stroke="black" d="M394,-225.5C394,-231.5 388,-237.5 382,-237.5"/>
<polyline fill="none" stroke="black" points="382,-237.5 292,-237.5 "/>
<path fill="none" stroke="black" d="M292,-237.5C286,-237.5 280,-231.5 280,-225.5"/>
<polyline fill="none" stroke="black" points="280,-225.5 280,-188.5 "/>
<path fill="none" stroke="black" d="M280,-188.5C280,-182.5 286,-176.5 292,-176.5"/>
<text text-anchor="middle" x="337" y="-220.9" font-family="Times,serif" font-size="14.00">Display</text>
<polyline fill="none" stroke="black" points="280,-214.5 394,-214.5 "/>
<text text-anchor="start" x="288" y="-197.9" font-family="Times,serif" font-size="14.00">interface :integer</text>
<text text-anchor="start" x="288" y="-182.9" font-family="Times,serif" font-size="14.00">style :integer</text>
</g>
<!-- Account&#45;&gt;Display -->
<g id="edge2" class="edge"><title>Account&#45;&gt;Display</title>
<path fill="none" stroke="black" d="M829.134,-465.499C723.463,-444.853 537.785,-397.359 408,-302 387.458,-286.907 370.181,-264.196 357.813,-244.764"/>
<ellipse fill="none" stroke="black" cx="833.3" cy="-466.301" rx="4.00001" ry="4.00001"/>
<ellipse fill="black" stroke="black" cx="355.589" cy="-241.173" rx="4.00002" ry="4.00002"/>
</g>
<!-- MainBoard -->
<g id="node8" class="node"><title>MainBoard</title>
<polyline fill="none" stroke="black" points="462,-161.5 576,-161.5 "/>
<path fill="none" stroke="black" d="M576,-161.5C582,-161.5 588,-167.5 588,-173.5"/>
<polyline fill="none" stroke="black" points="588,-173.5 588,-240.5 "/>
<path fill="none" stroke="black" d="M588,-240.5C588,-246.5 582,-252.5 576,-252.5"/>
<polyline fill="none" stroke="black" points="576,-252.5 462,-252.5 "/>
<path fill="none" stroke="black" d="M462,-252.5C456,-252.5 450,-246.5 450,-240.5"/>
<polyline fill="none" stroke="black" points="450,-240.5 450,-173.5 "/>
<path fill="none" stroke="black" d="M450,-173.5C450,-167.5 456,-161.5 462,-161.5"/>
<text text-anchor="middle" x="519" y="-235.9" font-family="Times,serif" font-size="14.00">MainBoard</text>
<polyline fill="none" stroke="black" points="450,-229.5 588,-229.5 "/>
<text text-anchor="start" x="458" y="-212.9" font-family="Times,serif" font-size="14.00">title :string</text>
<text text-anchor="start" x="458" y="-197.9" font-family="Times,serif" font-size="14.00">created :datetime</text>
<text text-anchor="start" x="458" y="-182.9" font-family="Times,serif" font-size="14.00">lastupdated :datetime</text>
<text text-anchor="start" x="458" y="-167.9" font-family="Times,serif" font-size="14.00">userid :integer</text>
</g>
<!-- Account&#45;&gt;MainBoard -->
<g id="edge10" class="edge"><title>Account&#45;&gt;MainBoard</title>
<path fill="none" stroke="black" d="M830.434,-427.155C766.348,-385.369 674.833,-324.474 597,-268 592.93,-265.047 588.772,-261.972 584.599,-258.843"/>
<ellipse fill="none" stroke="black" cx="833.976" cy="-429.462" rx="4.00002" ry="4.00002"/>
<polygon fill="black" stroke="black" points="584.55,-258.806 579.289,-249.184 580.562,-255.79 576.575,-252.773 576.575,-252.773 576.575,-252.773 580.562,-255.79 573.86,-256.362 584.55,-258.806 584.55,-258.806"/>
</g>
<!-- OptLink -->
<g id="node9" class="node"><title>OptLink</title>
<polyline fill="none" stroke="black" points="1511.5,-176.5 1598.5,-176.5 "/>
<path fill="none" stroke="black" d="M1598.5,-176.5C1604.5,-176.5 1610.5,-182.5 1610.5,-188.5"/>
<polyline fill="none" stroke="black" points="1610.5,-188.5 1610.5,-225.5 "/>
<path fill="none" stroke="black" d="M1610.5,-225.5C1610.5,-231.5 1604.5,-237.5 1598.5,-237.5"/>
<polyline fill="none" stroke="black" points="1598.5,-237.5 1511.5,-237.5 "/>
<path fill="none" stroke="black" d="M1511.5,-237.5C1505.5,-237.5 1499.5,-231.5 1499.5,-225.5"/>
<polyline fill="none" stroke="black" points="1499.5,-225.5 1499.5,-188.5 "/>
<path fill="none" stroke="black" d="M1499.5,-188.5C1499.5,-182.5 1505.5,-176.5 1511.5,-176.5"/>
<text text-anchor="middle" x="1555" y="-220.9" font-family="Times,serif" font-size="14.00">OptLink</text>
<polyline fill="none" stroke="black" points="1499.5,-214.5 1610.5,-214.5 "/>
<text text-anchor="start" x="1507.5" y="-197.9" font-family="Times,serif" font-size="14.00">userid :integer</text>
<text text-anchor="start" x="1507.5" y="-182.9" font-family="Times,serif" font-size="14.00">linknum :integer</text>
</g>
<!-- Account&#45;&gt;OptLink -->
<g id="edge20" class="edge"><title>Account&#45;&gt;OptLink</title>
<path fill="none" stroke="black" d="M992.829,-460.601C1109.65,-431.896 1328.11,-369.031 1491,-268 1501.39,-261.553 1511.52,-253.209 1520.53,-244.774"/>
<ellipse fill="none" stroke="black" cx="988.826" cy="-461.577" rx="4.00001" ry="4.00001"/>
<polygon fill="black" stroke="black" points="1520.65,-244.665 1530.96,-240.938 1524.24,-241.186 1527.83,-237.706 1527.83,-237.706 1527.83,-237.706 1524.24,-241.186 1524.7,-234.475 1520.65,-244.665 1520.65,-244.665"/>
</g>
<!-- Permission -->
<g id="node10" class="node"><title>Permission</title>
<polyline fill="none" stroke="black" points="759.5,-176.5 834.5,-176.5 "/>
<path fill="none" stroke="black" d="M834.5,-176.5C840.5,-176.5 846.5,-182.5 846.5,-188.5"/>
<polyline fill="none" stroke="black" points="846.5,-188.5 846.5,-225.5 "/>
<path fill="none" stroke="black" d="M846.5,-225.5C846.5,-231.5 840.5,-237.5 834.5,-237.5"/>
<polyline fill="none" stroke="black" points="834.5,-237.5 759.5,-237.5 "/>
<path fill="none" stroke="black" d="M759.5,-237.5C753.5,-237.5 747.5,-231.5 747.5,-225.5"/>
<polyline fill="none" stroke="black" points="747.5,-225.5 747.5,-188.5 "/>
<path fill="none" stroke="black" d="M747.5,-188.5C747.5,-182.5 753.5,-176.5 759.5,-176.5"/>
<text text-anchor="middle" x="797" y="-220.9" font-family="Times,serif" font-size="14.00">Permission</text>
<polyline fill="none" stroke="black" points="747.5,-214.5 846.5,-214.5 "/>
<text text-anchor="start" x="755.5" y="-197.9" font-family="Times,serif" font-size="14.00">userid :integer</text>
<text text-anchor="start" x="755.5" y="-182.9" font-family="Times,serif" font-size="14.00">status :string</text>
</g>
<!-- Account&#45;&gt;Permission -->
<g id="edge24" class="edge"><title>Account&#45;&gt;Permission</title>
<path fill="none" stroke="black" d="M841.577,-313.36C830.933,-287.963 820.896,-264.015 813.051,-245.298"/>
<ellipse fill="none" stroke="black" cx="843.14" cy="-317.087" rx="4.00002" ry="4.00002"/>
<ellipse fill="black" stroke="black" cx="811.374" cy="-241.296" rx="4.00001" ry="4.00001"/>
</g>
<!-- Plan -->
<g id="node11" class="node"><title>Plan</title>
<polyline fill="none" stroke="black" points="875.5,-176.5 946.5,-176.5 "/>
<path fill="none" stroke="black" d="M946.5,-176.5C952.5,-176.5 958.5,-182.5 958.5,-188.5"/>
<polyline fill="none" stroke="black" points="958.5,-188.5 958.5,-225.5 "/>
<path fill="none" stroke="black" d="M958.5,-225.5C958.5,-231.5 952.5,-237.5 946.5,-237.5"/>
<polyline fill="none" stroke="black" points="946.5,-237.5 875.5,-237.5 "/>
<path fill="none" stroke="black" d="M875.5,-237.5C869.5,-237.5 863.5,-231.5 863.5,-225.5"/>
<polyline fill="none" stroke="black" points="863.5,-225.5 863.5,-188.5 "/>
<path fill="none" stroke="black" d="M863.5,-188.5C863.5,-182.5 869.5,-176.5 875.5,-176.5"/>
<text text-anchor="middle" x="911" y="-220.9" font-family="Times,serif" font-size="14.00">Plan</text>
<polyline fill="none" stroke="black" points="863.5,-214.5 958.5,-214.5 "/>
<text text-anchor="start" x="871.5" y="-197.9" font-family="Times,serif" font-size="14.00">plan :text</text>
<text text-anchor="start" x="871.5" y="-182.9" font-family="Times,serif" font-size="14.00">edit_text :text</text>
</g>
<!-- Account&#45;&gt;Plan -->
<g id="edge22" class="edge"><title>Account&#45;&gt;Plan</title>
<path fill="none" stroke="black" d="M911,-312.622C911,-287.693 911,-264.2 911,-245.728"/>
<ellipse fill="none" stroke="black" cx="911" cy="-316.776" rx="4" ry="4"/>
<ellipse fill="black" stroke="black" cx="911" cy="-241.607" rx="4" ry="4"/>
</g>
<!-- PollVote -->
<g id="node14" class="node"><title>PollVote</title>
<polyline fill="none" stroke="black" points="988,-176.5 1080,-176.5 "/>
<path fill="none" stroke="black" d="M1080,-176.5C1086,-176.5 1092,-182.5 1092,-188.5"/>
<polyline fill="none" stroke="black" points="1092,-188.5 1092,-225.5 "/>
<path fill="none" stroke="black" d="M1092,-225.5C1092,-231.5 1086,-237.5 1080,-237.5"/>
<polyline fill="none" stroke="black" points="1080,-237.5 988,-237.5 "/>
<path fill="none" stroke="black" d="M988,-237.5C982,-237.5 976,-231.5 976,-225.5"/>
<polyline fill="none" stroke="black" points="976,-225.5 976,-188.5 "/>
<path fill="none" stroke="black" d="M976,-188.5C976,-182.5 982,-176.5 988,-176.5"/>
<text text-anchor="middle" x="1034" y="-220.9" font-family="Times,serif" font-size="14.00">PollVote</text>
<polyline fill="none" stroke="black" points="976,-214.5 1092,-214.5 "/>
<text text-anchor="start" x="984" y="-197.9" font-family="Times,serif" font-size="14.00">userid :integer</text>
<text text-anchor="start" x="984" y="-182.9" font-family="Times,serif" font-size="14.00">created :datetime</text>
</g>
<!-- Account&#45;&gt;PollVote -->
<g id="edge4" class="edge"><title>Account&#45;&gt;PollVote</title>
<path fill="none" stroke="black" d="M985.903,-313.36C997.08,-288.643 1007.64,-265.299 1016,-246.813"/>
<ellipse fill="none" stroke="black" cx="984.198" cy="-317.132" rx="4.00002" ry="4.00002"/>
<polygon fill="black" stroke="black" points="1016.04,-246.719 1024.26,-239.461 1018.1,-242.163 1020.16,-237.607 1020.16,-237.607 1020.16,-237.607 1018.1,-242.163 1016.06,-235.753 1016.04,-246.719 1016.04,-246.719"/>
</g>
<!-- Stylesheet -->
<g id="node17" class="node"><title>Stylesheet</title>
<polyline fill="none" stroke="black" points="1121.5,-176.5 1198.5,-176.5 "/>
<path fill="none" stroke="black" d="M1198.5,-176.5C1204.5,-176.5 1210.5,-182.5 1210.5,-188.5"/>
<polyline fill="none" stroke="black" points="1210.5,-188.5 1210.5,-225.5 "/>
<path fill="none" stroke="black" d="M1210.5,-225.5C1210.5,-231.5 1204.5,-237.5 1198.5,-237.5"/>
<polyline fill="none" stroke="black" points="1198.5,-237.5 1121.5,-237.5 "/>
<path fill="none" stroke="black" d="M1121.5,-237.5C1115.5,-237.5 1109.5,-231.5 1109.5,-225.5"/>
<polyline fill="none" stroke="black" points="1109.5,-225.5 1109.5,-188.5 "/>
<path fill="none" stroke="black" d="M1109.5,-188.5C1109.5,-182.5 1115.5,-176.5 1121.5,-176.5"/>
<text text-anchor="middle" x="1160" y="-220.9" font-family="Times,serif" font-size="14.00">Stylesheet</text>
<polyline fill="none" stroke="black" points="1109.5,-214.5 1210.5,-214.5 "/>
<text text-anchor="start" x="1117.5" y="-197.9" font-family="Times,serif" font-size="14.00">userid :integer</text>
<text text-anchor="start" x="1117.5" y="-182.9" font-family="Times,serif" font-size="14.00">stylesheet :text</text>
</g>
<!-- Account&#45;&gt;Stylesheet -->
<g id="edge6" class="edge"><title>Account&#45;&gt;Stylesheet</title>
<path fill="none" stroke="black" d="M990.257,-392.422C1036.11,-342.33 1091.45,-281.884 1126.19,-243.933"/>
<ellipse fill="none" stroke="black" cx="987.399" cy="-395.545" rx="4.00002" ry="4.00002"/>
<ellipse fill="black" stroke="black" cx="1129.31" cy="-240.529" rx="4.00002" ry="4.00002"/>
</g>
<!-- SubBoard -->
<g id="node18" class="node"><title>SubBoard</title>
<polyline fill="none" stroke="black" points="406,-1 498,-1 "/>
<path fill="none" stroke="black" d="M498,-1C504,-1 510,-7 510,-13"/>
<polyline fill="none" stroke="black" points="510,-13 510,-95 "/>
<path fill="none" stroke="black" d="M510,-95C510,-101 504,-107 498,-107"/>
<polyline fill="none" stroke="black" points="498,-107 406,-107 "/>
<path fill="none" stroke="black" d="M406,-107C400,-107 394,-101 394,-95"/>
<polyline fill="none" stroke="black" points="394,-95 394,-13 "/>
<path fill="none" stroke="black" d="M394,-13C394,-7 400,-1 406,-1"/>
<text text-anchor="middle" x="452" y="-90.4" font-family="Times,serif" font-size="14.00">SubBoard</text>
<polyline fill="none" stroke="black" points="394,-84 510,-84 "/>
<text text-anchor="start" x="402" y="-67.4" font-family="Times,serif" font-size="14.00">threadid :integer</text>
<text text-anchor="start" x="402" y="-52.4" font-family="Times,serif" font-size="14.00">created :datetime</text>
<text text-anchor="start" x="402" y="-37.4" font-family="Times,serif" font-size="14.00">userid :integer</text>
<text text-anchor="start" x="402" y="-22.4" font-family="Times,serif" font-size="14.00">title :string</text>
<text text-anchor="start" x="402" y="-7.4" font-family="Times,serif" font-size="14.00">contents :text</text>
</g>
<!-- Account&#45;&gt;SubBoard -->
<g id="edge14" class="edge"><title>Account&#45;&gt;SubBoard</title>
<path fill="none" stroke="black" d="M829.053,-469.112C718.919,-450.934 527.052,-400.958 441,-268 412.282,-223.628 418.828,-162.594 430.341,-117.06"/>
<ellipse fill="none" stroke="black" cx="833.216" cy="-469.782" rx="4.00001" ry="4.00001"/>
<polygon fill="black" stroke="black" points="430.367,-116.962 437.292,-108.459 431.656,-112.131 432.944,-107.299 432.944,-107.299 432.944,-107.299 431.656,-112.131 428.596,-106.14 430.367,-116.962 430.367,-116.962"/>
</g>
<!-- ViewedSecret -->
<g id="node21" class="node"><title>ViewedSecret</title>
<polyline fill="none" stroke="black" points="1240,-184 1314,-184 "/>
<path fill="none" stroke="black" d="M1314,-184C1320,-184 1326,-190 1326,-196"/>
<polyline fill="none" stroke="black" points="1326,-196 1326,-218 "/>
<path fill="none" stroke="black" d="M1326,-218C1326,-224 1320,-230 1314,-230"/>
<polyline fill="none" stroke="black" points="1314,-230 1240,-230 "/>
<path fill="none" stroke="black" d="M1240,-230C1234,-230 1228,-224 1228,-218"/>
<polyline fill="none" stroke="black" points="1228,-218 1228,-196 "/>
<path fill="none" stroke="black" d="M1228,-196C1228,-190 1234,-184 1240,-184"/>
<text text-anchor="middle" x="1277" y="-213.4" font-family="Times,serif" font-size="14.00">ViewedSecret</text>
<polyline fill="none" stroke="black" points="1228,-207 1326,-207 "/>
<text text-anchor="start" x="1236" y="-190.4" font-family="Times,serif" font-size="14.00">date :datetime</text>
</g>
<!-- Account&#45;&gt;ViewedSecret -->
<g id="edge18" class="edge"><title>Account&#45;&gt;ViewedSecret</title>
<path fill="none" stroke="black" d="M991.651,-430.339C1055.81,-390.106 1146.52,-329.747 1219,-268 1230.34,-258.335 1241.86,-246.69 1251.6,-236.176"/>
<ellipse fill="none" stroke="black" cx="988.138" cy="-432.535" rx="4.00002" ry="4.00002"/>
<ellipse fill="black" stroke="black" cx="1254.42" cy="-233.092" rx="4.00002" ry="4.00002"/>
</g>
<!-- AvailLink -->
<g id="node4" class="node"><title>AvailLink</title>
<polyline fill="none" stroke="black" points="1512.5,-433.5 1597.5,-433.5 "/>
<path fill="none" stroke="black" d="M1597.5,-433.5C1603.5,-433.5 1609.5,-439.5 1609.5,-445.5"/>
<polyline fill="none" stroke="black" points="1609.5,-445.5 1609.5,-512.5 "/>
<path fill="none" stroke="black" d="M1609.5,-512.5C1609.5,-518.5 1603.5,-524.5 1597.5,-524.5"/>
<polyline fill="none" stroke="black" points="1597.5,-524.5 1512.5,-524.5 "/>
<path fill="none" stroke="black" d="M1512.5,-524.5C1506.5,-524.5 1500.5,-518.5 1500.5,-512.5"/>
<polyline fill="none" stroke="black" points="1500.5,-512.5 1500.5,-445.5 "/>
<path fill="none" stroke="black" d="M1500.5,-445.5C1500.5,-439.5 1506.5,-433.5 1512.5,-433.5"/>
<text text-anchor="middle" x="1555" y="-507.9" font-family="Times,serif" font-size="14.00">AvailLink</text>
<polyline fill="none" stroke="black" points="1500.5,-501.5 1609.5,-501.5 "/>
<text text-anchor="start" x="1508.5" y="-484.9" font-family="Times,serif" font-size="14.00">linkname :string</text>
<text text-anchor="start" x="1508.5" y="-469.9" font-family="Times,serif" font-size="14.00">descr :text</text>
<text text-anchor="start" x="1508.5" y="-454.9" font-family="Times,serif" font-size="14.00">html_code :text</text>
<text text-anchor="start" x="1508.5" y="-439.9" font-family="Times,serif" font-size="14.00">static :text</text>
</g>
<!-- AvailLink&#45;&gt;OptLink -->
<g id="edge26" class="edge"><title>AvailLink&#45;&gt;OptLink</title>
<path fill="none" stroke="black" d="M1555,-425.434C1555,-373.354 1555,-295.376 1555,-248.039"/>
<ellipse fill="none" stroke="black" cx="1555" cy="-429.473" rx="4" ry="4"/>
<polygon fill="black" stroke="black" points="1555,-247.849 1559.5,-237.849 1555,-242.849 1555,-237.849 1555,-237.849 1555,-237.849 1555,-242.849 1550.5,-237.849 1555,-247.849 1555,-247.849"/>
</g>
<!-- Interface -->
<g id="node7" class="node"><title>Interface</title>
<polyline fill="none" stroke="black" points="208,-448.5 270,-448.5 "/>
<path fill="none" stroke="black" d="M270,-448.5C276,-448.5 282,-454.5 282,-460.5"/>
<polyline fill="none" stroke="black" points="282,-460.5 282,-497.5 "/>
<path fill="none" stroke="black" d="M282,-497.5C282,-503.5 276,-509.5 270,-509.5"/>
<polyline fill="none" stroke="black" points="270,-509.5 208,-509.5 "/>
<path fill="none" stroke="black" d="M208,-509.5C202,-509.5 196,-503.5 196,-497.5"/>
<polyline fill="none" stroke="black" points="196,-497.5 196,-460.5 "/>
<path fill="none" stroke="black" d="M196,-460.5C196,-454.5 202,-448.5 208,-448.5"/>
<text text-anchor="middle" x="239" y="-492.9" font-family="Times,serif" font-size="14.00">Interface</text>
<polyline fill="none" stroke="black" points="196,-486.5 282,-486.5 "/>
<text text-anchor="start" x="204" y="-469.9" font-family="Times,serif" font-size="14.00">path :string</text>
<text text-anchor="start" x="204" y="-454.9" font-family="Times,serif" font-size="14.00">descr :string</text>
</g>
<!-- Interface&#45;&gt;Display -->
<g id="edge28" class="edge"><title>Interface&#45;&gt;Display</title>
<path fill="none" stroke="black" d="M250.784,-440.407C260.865,-408.045 276.073,-360.724 291,-320 299.913,-295.683 310.806,-268.816 319.754,-247.383"/>
<ellipse fill="none" stroke="black" cx="249.52" cy="-444.479" rx="4.00001" ry="4.00001"/>
<polygon fill="black" stroke="black" points="319.845,-247.167 327.864,-239.688 321.779,-242.557 323.714,-237.946 323.714,-237.946 323.714,-237.946 321.779,-242.557 319.565,-236.205 319.845,-247.167 319.845,-247.167"/>
</g>
<!-- MainBoard&#45;&gt;SubBoard -->
<g id="edge30" class="edge"><title>MainBoard&#45;&gt;SubBoard</title>
<path fill="none" stroke="black" d="M495.521,-153.384C490.288,-141.434 484.696,-128.663 479.323,-116.394"/>
<ellipse fill="none" stroke="black" cx="497.293" cy="-157.431" rx="4.00002" ry="4.00002"/>
<polygon fill="black" stroke="black" points="479.278,-116.291 479.389,-105.326 477.272,-111.711 475.267,-107.131 475.267,-107.131 475.267,-107.131 477.272,-111.711 471.145,-108.936 479.278,-116.291 479.278,-116.291"/>
</g>
<!-- PollChoice -->
<g id="node12" class="node"><title>PollChoice</title>
<polyline fill="none" stroke="black" points="1640,-176.5 1732,-176.5 "/>
<path fill="none" stroke="black" d="M1732,-176.5C1738,-176.5 1744,-182.5 1744,-188.5"/>
<polyline fill="none" stroke="black" points="1744,-188.5 1744,-225.5 "/>
<path fill="none" stroke="black" d="M1744,-225.5C1744,-231.5 1738,-237.5 1732,-237.5"/>
<polyline fill="none" stroke="black" points="1732,-237.5 1640,-237.5 "/>
<path fill="none" stroke="black" d="M1640,-237.5C1634,-237.5 1628,-231.5 1628,-225.5"/>
<polyline fill="none" stroke="black" points="1628,-225.5 1628,-188.5 "/>
<path fill="none" stroke="black" d="M1628,-188.5C1628,-182.5 1634,-176.5 1640,-176.5"/>
<text text-anchor="middle" x="1686" y="-220.9" font-family="Times,serif" font-size="14.00">PollChoice</text>
<polyline fill="none" stroke="black" points="1628,-214.5 1744,-214.5 "/>
<text text-anchor="start" x="1636" y="-197.9" font-family="Times,serif" font-size="14.00">html :text</text>
<text text-anchor="start" x="1636" y="-182.9" font-family="Times,serif" font-size="14.00">created :datetime</text>
</g>
<!-- PollQuestion -->
<g id="node13" class="node"><title>PollQuestion</title>
<polyline fill="none" stroke="black" points="1640,-448.5 1732,-448.5 "/>
<path fill="none" stroke="black" d="M1732,-448.5C1738,-448.5 1744,-454.5 1744,-460.5"/>
<polyline fill="none" stroke="black" points="1744,-460.5 1744,-497.5 "/>
<path fill="none" stroke="black" d="M1744,-497.5C1744,-503.5 1738,-509.5 1732,-509.5"/>
<polyline fill="none" stroke="black" points="1732,-509.5 1640,-509.5 "/>
<path fill="none" stroke="black" d="M1640,-509.5C1634,-509.5 1628,-503.5 1628,-497.5"/>
<polyline fill="none" stroke="black" points="1628,-497.5 1628,-460.5 "/>
<path fill="none" stroke="black" d="M1628,-460.5C1628,-454.5 1634,-448.5 1640,-448.5"/>
<text text-anchor="middle" x="1686" y="-492.9" font-family="Times,serif" font-size="14.00">PollQuestion</text>
<polyline fill="none" stroke="black" points="1628,-486.5 1744,-486.5 "/>
<text text-anchor="start" x="1636" y="-469.9" font-family="Times,serif" font-size="14.00">html :text</text>
<text text-anchor="start" x="1636" y="-454.9" font-family="Times,serif" font-size="14.00">created :datetime</text>
</g>
<!-- PollQuestion&#45;&gt;PollChoice -->
<g id="edge32" class="edge"><title>PollQuestion&#45;&gt;PollChoice</title>
<path fill="none" stroke="black" d="M1686,-440.283C1686,-389.234 1686,-299.812 1686,-247.762"/>
<ellipse fill="none" stroke="black" cx="1686" cy="-444.327" rx="4" ry="4"/>
<polygon fill="black" stroke="black" points="1686,-247.561 1690.5,-237.561 1686,-242.561 1686,-237.561 1686,-237.561 1686,-237.561 1686,-242.561 1681.5,-237.561 1686,-247.561 1686,-247.561"/>
</g>
<!-- Secret -->
<g id="node15" class="node"><title>Secret</title>
<polyline fill="none" stroke="black" points="1773.5,-433.5 1906.5,-433.5 "/>
<path fill="none" stroke="black" d="M1906.5,-433.5C1912.5,-433.5 1918.5,-439.5 1918.5,-445.5"/>
<polyline fill="none" stroke="black" points="1918.5,-445.5 1918.5,-512.5 "/>
<path fill="none" stroke="black" d="M1918.5,-512.5C1918.5,-518.5 1912.5,-524.5 1906.5,-524.5"/>
<polyline fill="none" stroke="black" points="1906.5,-524.5 1773.5,-524.5 "/>
<path fill="none" stroke="black" d="M1773.5,-524.5C1767.5,-524.5 1761.5,-518.5 1761.5,-512.5"/>
<polyline fill="none" stroke="black" points="1761.5,-512.5 1761.5,-445.5 "/>
<path fill="none" stroke="black" d="M1761.5,-445.5C1761.5,-439.5 1767.5,-433.5 1773.5,-433.5"/>
<text text-anchor="middle" x="1840" y="-507.9" font-family="Times,serif" font-size="14.00">Secret</text>
<polyline fill="none" stroke="black" points="1761.5,-501.5 1918.5,-501.5 "/>
<text text-anchor="start" x="1769.5" y="-484.9" font-family="Times,serif" font-size="14.00">secret_text :text</text>
<text text-anchor="start" x="1769.5" y="-469.9" font-family="Times,serif" font-size="14.00">date :datetime</text>
<text text-anchor="start" x="1769.5" y="-454.9" font-family="Times,serif" font-size="14.00">display :string</text>
<text text-anchor="start" x="1769.5" y="-439.9" font-family="Times,serif" font-size="14.00">date_approved :datetime</text>
</g>
<!-- Style -->
<g id="node16" class="node"><title>Style</title>
<polyline fill="none" stroke="black" points="312,-441 380,-441 "/>
<path fill="none" stroke="black" d="M380,-441C386,-441 392,-447 392,-453"/>
<polyline fill="none" stroke="black" points="392,-453 392,-505 "/>
<path fill="none" stroke="black" d="M392,-505C392,-511 386,-517 380,-517"/>
<polyline fill="none" stroke="black" points="380,-517 312,-517 "/>
<path fill="none" stroke="black" d="M312,-517C306,-517 300,-511 300,-505"/>
<polyline fill="none" stroke="black" points="300,-505 300,-453 "/>
<path fill="none" stroke="black" d="M300,-453C300,-447 306,-441 312,-441"/>
<text text-anchor="middle" x="346" y="-500.4" font-family="Times,serif" font-size="14.00">Style</text>
<polyline fill="none" stroke="black" points="300,-494 392,-494 "/>
<text text-anchor="start" x="308" y="-477.4" font-family="Times,serif" font-size="14.00">style :integer</text>
<text text-anchor="start" x="308" y="-462.4" font-family="Times,serif" font-size="14.00">path :string</text>
<text text-anchor="start" x="308" y="-447.4" font-family="Times,serif" font-size="14.00">descr :string</text>
</g>
<!-- Style&#45;&gt;Display -->
<g id="edge34" class="edge"><title>Style&#45;&gt;Display</title>
<path fill="none" stroke="black" d="M344.465,-432.619C342.746,-380.665 339.987,-297.262 338.348,-247.732"/>
<ellipse fill="none" stroke="black" cx="344.607" cy="-436.895" rx="4" ry="4"/>
<polygon fill="black" stroke="black" points="338.347,-247.694 342.513,-237.551 338.181,-242.697 338.016,-237.7 338.016,-237.7 338.016,-237.7 338.181,-242.697 333.518,-237.849 338.347,-247.694 338.347,-247.694"/>
</g>
<!-- System -->
<g id="node19" class="node"><title>System</title>
<polyline fill="none" stroke="black" points="1948,-448.5 1998,-448.5 "/>
<path fill="none" stroke="black" d="M1998,-448.5C2004,-448.5 2010,-454.5 2010,-460.5"/>
<polyline fill="none" stroke="black" points="2010,-460.5 2010,-497.5 "/>
<path fill="none" stroke="black" d="M2010,-497.5C2010,-503.5 2004,-509.5 1998,-509.5"/>
<polyline fill="none" stroke="black" points="1998,-509.5 1948,-509.5 "/>
<path fill="none" stroke="black" d="M1948,-509.5C1942,-509.5 1936,-503.5 1936,-497.5"/>
<polyline fill="none" stroke="black" points="1936,-497.5 1936,-460.5 "/>
<path fill="none" stroke="black" d="M1936,-460.5C1936,-454.5 1942,-448.5 1948,-448.5"/>
<text text-anchor="middle" x="1973" y="-492.9" font-family="Times,serif" font-size="14.00">System</text>
<polyline fill="none" stroke="black" points="1936,-486.5 2010,-486.5 "/>
<text text-anchor="start" x="1944" y="-469.9" font-family="Times,serif" font-size="14.00">motd :text</text>
<text text-anchor="start" x="1944" y="-454.9" font-family="Times,serif" font-size="14.00">poll :text</text>
</g>
<!-- TentativeAccount -->
<g id="node20" class="node"><title>TentativeAccount</title>
<polyline fill="none" stroke="black" points="2039.5,-441 2134.5,-441 "/>
<path fill="none" stroke="black" d="M2134.5,-441C2140.5,-441 2146.5,-447 2146.5,-453"/>
<polyline fill="none" stroke="black" points="2146.5,-453 2146.5,-505 "/>
<path fill="none" stroke="black" d="M2146.5,-505C2146.5,-511 2140.5,-517 2134.5,-517"/>
<polyline fill="none" stroke="black" points="2134.5,-517 2039.5,-517 "/>
<path fill="none" stroke="black" d="M2039.5,-517C2033.5,-517 2027.5,-511 2027.5,-505"/>
<polyline fill="none" stroke="black" points="2027.5,-505 2027.5,-453 "/>
<path fill="none" stroke="black" d="M2027.5,-453C2027.5,-447 2033.5,-441 2039.5,-441"/>
<text text-anchor="middle" x="2087" y="-500.4" font-family="Times,serif" font-size="14.00">TentativeAccount</text>
<polyline fill="none" stroke="black" points="2027.5,-494 2146.5,-494 "/>
<text text-anchor="start" x="2035.5" y="-477.4" font-family="Times,serif" font-size="14.00">created :datetime</text>
<text text-anchor="start" x="2035.5" y="-462.4" font-family="Times,serif" font-size="14.00">token :string</text>
<text text-anchor="start" x="2035.5" y="-447.4" font-family="Times,serif" font-size="14.00">session :string</text>
</g>
</g>
</svg>
