<?xml version="1.0" encoding="UTF-8" standalone="no"?>
<!DOCTYPE svg PUBLIC "-//W3C//DTD SVG 1.1//EN"
 "http://www.w3.org/Graphics/SVG/1.1/DTD/svg11.dtd">
<!-- Generated by graphviz version 2.26.3 (20100126.1600)
 -->
<!-- Title: models_diagram Pages: 1 -->
<svg width="2058pt" height="776pt"
 viewBox="0.00 0.00 2058.00 776.00" xmlns="http://www.w3.org/2000/svg" xmlns:xlink="http://www.w3.org/1999/xlink">
<g id="graph1" class="graph" transform="scale(1 1) rotate(0) translate(4 772)">
<title>models_diagram</title>
<polygon fill="white" stroke="white" points="-4,5 -4,-772 2055,-772 2055,5 -4,5"/>
<!-- _diagram_info -->
<g id="node1" class="node"><title>_diagram_info</title>
<text text-anchor="start" x="1121.5" y="-745.3" font-family="Times,serif" font-size="13.00">Models diagram</text>
<text text-anchor="start" x="1121.5" y="-731.3" font-family="Times,serif" font-size="13.00">Date: Mar 12 2011 &#45; 16:49</text>
<text text-anchor="start" x="1121.5" y="-717.3" font-family="Times,serif" font-size="13.00">Migration version: 0</text>
<text text-anchor="start" x="1121.5" y="-703.3" font-family="Times,serif" font-size="13.00">Generated by RailRoady 1.0.1</text>
<text text-anchor="start" x="1121.5" y="-689.3" font-family="Times,serif" font-size="13.00">http://railroady.prestonlee.com</text>
</g>
<!-- Account -->
<g id="node2" class="node"><title>Account</title>
<polyline fill="none" stroke="black" points="706.5,-321 829.5,-321 "/>
<path fill="none" stroke="black" d="M829.5,-321C835.5,-321 841.5,-327 841.5,-333"/>
<polyline fill="none" stroke="black" points="841.5,-333 841.5,-625 "/>
<path fill="none" stroke="black" d="M841.5,-625C841.5,-631 835.5,-637 829.5,-637"/>
<polyline fill="none" stroke="black" points="829.5,-637 706.5,-637 "/>
<path fill="none" stroke="black" d="M706.5,-637C700.5,-637 694.5,-631 694.5,-625"/>
<polyline fill="none" stroke="black" points="694.5,-625 694.5,-333 "/>
<path fill="none" stroke="black" d="M694.5,-333C694.5,-327 700.5,-321 706.5,-321"/>
<text text-anchor="middle" x="768" y="-620.4" font-family="Times,serif" font-size="14.00">Account</text>
<polyline fill="none" stroke="black" points="694.5,-614 841.5,-614 "/>
<text text-anchor="start" x="702.5" y="-597.4" font-family="Times,serif" font-size="14.00">username :string</text>
<text text-anchor="start" x="702.5" y="-582.4" font-family="Times,serif" font-size="14.00">created :datetime</text>
<text text-anchor="start" x="702.5" y="-567.4" font-family="Times,serif" font-size="14.00">password :string</text>
<text text-anchor="start" x="702.5" y="-552.4" font-family="Times,serif" font-size="14.00">email :string</text>
<text text-anchor="start" x="702.5" y="-537.4" font-family="Times,serif" font-size="14.00">pseudo :string</text>
<text text-anchor="start" x="702.5" y="-522.4" font-family="Times,serif" font-size="14.00">login :datetime</text>
<text text-anchor="start" x="702.5" y="-507.4" font-family="Times,serif" font-size="14.00">changed :datetime</text>
<text text-anchor="start" x="702.5" y="-492.4" font-family="Times,serif" font-size="14.00">poll :integer</text>
<text text-anchor="start" x="702.5" y="-477.4" font-family="Times,serif" font-size="14.00">group_bit :string</text>
<text text-anchor="start" x="702.5" y="-462.4" font-family="Times,serif" font-size="14.00">spec_message :string</text>
<text text-anchor="start" x="702.5" y="-447.4" font-family="Times,serif" font-size="14.00">grad_year :string</text>
<text text-anchor="start" x="702.5" y="-432.4" font-family="Times,serif" font-size="14.00">edit_cols :integer</text>
<text text-anchor="start" x="702.5" y="-417.4" font-family="Times,serif" font-size="14.00">edit_rows :integer</text>
<text text-anchor="start" x="702.5" y="-402.4" font-family="Times,serif" font-size="14.00">webview :string</text>
<text text-anchor="start" x="702.5" y="-387.4" font-family="Times,serif" font-size="14.00">notes_asc :string</text>
<text text-anchor="start" x="702.5" y="-372.4" font-family="Times,serif" font-size="14.00">user_type :string</text>
<text text-anchor="start" x="702.5" y="-357.4" font-family="Times,serif" font-size="14.00">show_images :boolean</text>
<text text-anchor="start" x="702.5" y="-342.4" font-family="Times,serif" font-size="14.00">guest_password :string</text>
<text text-anchor="start" x="702.5" y="-327.4" font-family="Times,serif" font-size="14.00">is_admin :boolean</text>
</g>
<!-- Account&#45;&gt;Account -->
<g id="edge14" class="edge"><title>Account&#45;&gt;Account</title>
<path fill="none" stroke="black" d="M849.85,-503.278C855.536,-497.726 859,-489.633 859,-479 859,-468.367 855.536,-460.274 849.85,-454.722"/>
<polygon fill="black" stroke="black" points="849.807,-503.307 839.012,-505.236 845.679,-506.129 841.552,-508.951 841.552,-508.951 841.552,-508.951 845.679,-506.129 844.092,-512.666 849.807,-503.307 849.807,-503.307"/>
<polygon fill="black" stroke="black" points="849.807,-454.693 844.092,-445.334 845.679,-451.871 841.552,-449.049 841.552,-449.049 841.552,-449.049 845.679,-451.871 839.012,-452.764 849.807,-454.693 849.807,-454.693"/>
<text text-anchor="middle" x="929" y="-473.9" font-family="Times,serif" font-size="14.00">people_that_interest_me</text>
</g>
<!-- Autofinger -->
<g id="node4" class="node"><title>Autofinger</title>
<polyline fill="none" stroke="black" points="781.5,-146.5 882.5,-146.5 "/>
<path fill="none" stroke="black" d="M882.5,-146.5C888.5,-146.5 894.5,-152.5 894.5,-158.5"/>
<polyline fill="none" stroke="black" points="894.5,-158.5 894.5,-255.5 "/>
<path fill="none" stroke="black" d="M894.5,-255.5C894.5,-261.5 888.5,-267.5 882.5,-267.5"/>
<polyline fill="none" stroke="black" points="882.5,-267.5 781.5,-267.5 "/>
<path fill="none" stroke="black" d="M781.5,-267.5C775.5,-267.5 769.5,-261.5 769.5,-255.5"/>
<polyline fill="none" stroke="black" points="769.5,-255.5 769.5,-158.5 "/>
<path fill="none" stroke="black" d="M769.5,-158.5C769.5,-152.5 775.5,-146.5 781.5,-146.5"/>
<text text-anchor="middle" x="832" y="-250.9" font-family="Times,serif" font-size="14.00">Autofinger</text>
<polyline fill="none" stroke="black" points="769.5,-244.5 894.5,-244.5 "/>
<text text-anchor="start" x="777.5" y="-227.9" font-family="Times,serif" font-size="14.00">owner :integer</text>
<text text-anchor="start" x="777.5" y="-212.9" font-family="Times,serif" font-size="14.00">interest :integer</text>
<text text-anchor="start" x="777.5" y="-197.9" font-family="Times,serif" font-size="14.00">priority :integer</text>
<text text-anchor="start" x="777.5" y="-182.9" font-family="Times,serif" font-size="14.00">updated :string</text>
<text text-anchor="start" x="777.5" y="-167.9" font-family="Times,serif" font-size="14.00">updtime :datetime</text>
<text text-anchor="start" x="777.5" y="-152.9" font-family="Times,serif" font-size="14.00">readtime :datetime</text>
</g>
<!-- Account&#45;&gt;Autofinger -->
<g id="edge10" class="edge"><title>Account&#45;&gt;Autofinger</title>
<path fill="none" stroke="black" d="M807.088,-312.877C809.971,-300.624 812.773,-288.715 815.394,-277.574"/>
<ellipse fill="none" stroke="black" cx="806.145" cy="-316.883" rx="4.00001" ry="4.00001"/>
<polygon fill="black" stroke="black" points="815.457,-277.306 822.128,-268.602 816.603,-272.439 817.748,-267.571 817.748,-267.571 817.748,-267.571 816.603,-272.439 813.368,-266.541 815.457,-277.306 815.457,-277.306"/>
<text text-anchor="middle" x="867.5" y="-288.9" font-family="Times,serif" font-size="14.00">interests_in_others</text>
</g>
<!-- AvailLink -->
<g id="node5" class="node"><title>AvailLink</title>
<polyline fill="none" stroke="black" points="1195.5,-161.5 1280.5,-161.5 "/>
<path fill="none" stroke="black" d="M1280.5,-161.5C1286.5,-161.5 1292.5,-167.5 1292.5,-173.5"/>
<polyline fill="none" stroke="black" points="1292.5,-173.5 1292.5,-240.5 "/>
<path fill="none" stroke="black" d="M1292.5,-240.5C1292.5,-246.5 1286.5,-252.5 1280.5,-252.5"/>
<polyline fill="none" stroke="black" points="1280.5,-252.5 1195.5,-252.5 "/>
<path fill="none" stroke="black" d="M1195.5,-252.5C1189.5,-252.5 1183.5,-246.5 1183.5,-240.5"/>
<polyline fill="none" stroke="black" points="1183.5,-240.5 1183.5,-173.5 "/>
<path fill="none" stroke="black" d="M1183.5,-173.5C1183.5,-167.5 1189.5,-161.5 1195.5,-161.5"/>
<text text-anchor="middle" x="1238" y="-235.9" font-family="Times,serif" font-size="14.00">AvailLink</text>
<polyline fill="none" stroke="black" points="1183.5,-229.5 1292.5,-229.5 "/>
<text text-anchor="start" x="1191.5" y="-212.9" font-family="Times,serif" font-size="14.00">linkname :string</text>
<text text-anchor="start" x="1191.5" y="-197.9" font-family="Times,serif" font-size="14.00">descr :text</text>
<text text-anchor="start" x="1191.5" y="-182.9" font-family="Times,serif" font-size="14.00">html_code :text</text>
<text text-anchor="start" x="1191.5" y="-167.9" font-family="Times,serif" font-size="14.00">static :text</text>
</g>
<!-- Account&#45;&gt;AvailLink -->
<g id="edge4" class="edge"><title>Account&#45;&gt;AvailLink</title>
<path fill="none" stroke="black" d="M851.616,-456.556C938.185,-430.23 1073.96,-380.005 1170,-302 1183.95,-290.669 1196.39,-275.8 1206.69,-261.201"/>
<polygon fill="black" stroke="black" points="851.409,-456.618 840.537,-455.184 846.62,-458.056 841.831,-459.494 841.831,-459.494 841.831,-459.494 846.62,-458.056 843.125,-463.804 851.409,-456.618 851.409,-456.618"/>
<polygon fill="black" stroke="black" points="1206.88,-260.929 1216.23,-255.198 1209.69,-256.797 1212.51,-252.664 1212.51,-252.664 1212.51,-252.664 1209.69,-256.797 1208.79,-250.131 1206.88,-260.929 1206.88,-260.929"/>
</g>
<!-- BoardVote -->
<g id="node6" class="node"><title>BoardVote</title>
<polyline fill="none" stroke="black" points="213.5,-154 318.5,-154 "/>
<path fill="none" stroke="black" d="M318.5,-154C324.5,-154 330.5,-160 330.5,-166"/>
<polyline fill="none" stroke="black" points="330.5,-166 330.5,-248 "/>
<path fill="none" stroke="black" d="M330.5,-248C330.5,-254 324.5,-260 318.5,-260"/>
<polyline fill="none" stroke="black" points="318.5,-260 213.5,-260 "/>
<path fill="none" stroke="black" d="M213.5,-260C207.5,-260 201.5,-254 201.5,-248"/>
<polyline fill="none" stroke="black" points="201.5,-248 201.5,-166 "/>
<path fill="none" stroke="black" d="M201.5,-166C201.5,-160 207.5,-154 213.5,-154"/>
<text text-anchor="middle" x="266" y="-243.4" font-family="Times,serif" font-size="14.00">BoardVote</text>
<polyline fill="none" stroke="black" points="201.5,-237 330.5,-237 "/>
<text text-anchor="start" x="209.5" y="-220.4" font-family="Times,serif" font-size="14.00">userid :integer</text>
<text text-anchor="start" x="209.5" y="-205.4" font-family="Times,serif" font-size="14.00">threadid :integer</text>
<text text-anchor="start" x="209.5" y="-190.4" font-family="Times,serif" font-size="14.00">messageid :integer</text>
<text text-anchor="start" x="209.5" y="-175.4" font-family="Times,serif" font-size="14.00">vote_date :datetime</text>
<text text-anchor="start" x="209.5" y="-160.4" font-family="Times,serif" font-size="14.00">vote :integer</text>
</g>
<!-- Account&#45;&gt;BoardVote -->
<g id="edge18" class="edge"><title>Account&#45;&gt;BoardVote</title>
<path fill="none" stroke="black" d="M686.496,-457.895C596.41,-431.778 450.046,-380.858 344,-302 331.095,-292.404 319.029,-280.225 308.426,-267.816"/>
<ellipse fill="none" stroke="black" cx="690.382" cy="-459.011" rx="4.00001" ry="4.00001"/>
<polygon fill="black" stroke="black" points="308.398,-267.782 305.484,-257.21 305.208,-263.931 302.018,-260.08 302.018,-260.08 302.018,-260.08 305.208,-263.931 298.553,-262.951 308.398,-267.782 308.398,-267.782"/>
</g>
<!-- Display -->
<g id="node7" class="node"><title>Display</title>
<polyline fill="none" stroke="black" points="82,-176.5 172,-176.5 "/>
<path fill="none" stroke="black" d="M172,-176.5C178,-176.5 184,-182.5 184,-188.5"/>
<polyline fill="none" stroke="black" points="184,-188.5 184,-225.5 "/>
<path fill="none" stroke="black" d="M184,-225.5C184,-231.5 178,-237.5 172,-237.5"/>
<polyline fill="none" stroke="black" points="172,-237.5 82,-237.5 "/>
<path fill="none" stroke="black" d="M82,-237.5C76,-237.5 70,-231.5 70,-225.5"/>
<polyline fill="none" stroke="black" points="70,-225.5 70,-188.5 "/>
<path fill="none" stroke="black" d="M70,-188.5C70,-182.5 76,-176.5 82,-176.5"/>
<text text-anchor="middle" x="127" y="-220.9" font-family="Times,serif" font-size="14.00">Display</text>
<polyline fill="none" stroke="black" points="70,-214.5 184,-214.5 "/>
<text text-anchor="start" x="78" y="-197.9" font-family="Times,serif" font-size="14.00">interface :integer</text>
<text text-anchor="start" x="78" y="-182.9" font-family="Times,serif" font-size="14.00">style :integer</text>
</g>
<!-- Account&#45;&gt;Display -->
<g id="edge2" class="edge"><title>Account&#45;&gt;Display</title>
<path fill="none" stroke="black" d="M686.617,-459.994C570.947,-430.646 355.06,-367.109 193,-268 181.756,-261.124 170.747,-252.144 161.042,-243.198"/>
<ellipse fill="none" stroke="black" cx="690.551" cy="-460.985" rx="4.00001" ry="4.00001"/>
<ellipse fill="black" stroke="black" cx="158.083" cy="-240.399" rx="4.00002" ry="4.00002"/>
</g>
<!-- MainBoard -->
<g id="node9" class="node"><title>MainBoard</title>
<polyline fill="none" stroke="black" points="398,-161.5 512,-161.5 "/>
<path fill="none" stroke="black" d="M512,-161.5C518,-161.5 524,-167.5 524,-173.5"/>
<polyline fill="none" stroke="black" points="524,-173.5 524,-240.5 "/>
<path fill="none" stroke="black" d="M524,-240.5C524,-246.5 518,-252.5 512,-252.5"/>
<polyline fill="none" stroke="black" points="512,-252.5 398,-252.5 "/>
<path fill="none" stroke="black" d="M398,-252.5C392,-252.5 386,-246.5 386,-240.5"/>
<polyline fill="none" stroke="black" points="386,-240.5 386,-173.5 "/>
<path fill="none" stroke="black" d="M386,-173.5C386,-167.5 392,-161.5 398,-161.5"/>
<text text-anchor="middle" x="455" y="-235.9" font-family="Times,serif" font-size="14.00">MainBoard</text>
<polyline fill="none" stroke="black" points="386,-229.5 524,-229.5 "/>
<text text-anchor="start" x="394" y="-212.9" font-family="Times,serif" font-size="14.00">title :string</text>
<text text-anchor="start" x="394" y="-197.9" font-family="Times,serif" font-size="14.00">created :datetime</text>
<text text-anchor="start" x="394" y="-182.9" font-family="Times,serif" font-size="14.00">lastupdated :datetime</text>
<text text-anchor="start" x="394" y="-167.9" font-family="Times,serif" font-size="14.00">userid :integer</text>
</g>
<!-- Account&#45;&gt;MainBoard -->
<g id="edge16" class="edge"><title>Account&#45;&gt;MainBoard</title>
<path fill="none" stroke="black" d="M688.102,-409.568C634.348,-362.855 564.589,-302.234 515.441,-259.524"/>
<ellipse fill="none" stroke="black" cx="691.2" cy="-412.26" rx="4.00002" ry="4.00002"/>
<polygon fill="black" stroke="black" points="515.284,-259.388 510.688,-249.431 511.51,-256.108 507.736,-252.828 507.736,-252.828 507.736,-252.828 511.51,-256.108 504.784,-256.225 515.284,-259.388 515.284,-259.388"/>
</g>
<!-- OptLink -->
<g id="node10" class="node"><title>OptLink</title>
<polyline fill="none" stroke="black" points="1124.5,-23.5 1211.5,-23.5 "/>
<path fill="none" stroke="black" d="M1211.5,-23.5C1217.5,-23.5 1223.5,-29.5 1223.5,-35.5"/>
<polyline fill="none" stroke="black" points="1223.5,-35.5 1223.5,-72.5 "/>
<path fill="none" stroke="black" d="M1223.5,-72.5C1223.5,-78.5 1217.5,-84.5 1211.5,-84.5"/>
<polyline fill="none" stroke="black" points="1211.5,-84.5 1124.5,-84.5 "/>
<path fill="none" stroke="black" d="M1124.5,-84.5C1118.5,-84.5 1112.5,-78.5 1112.5,-72.5"/>
<polyline fill="none" stroke="black" points="1112.5,-72.5 1112.5,-35.5 "/>
<path fill="none" stroke="black" d="M1112.5,-35.5C1112.5,-29.5 1118.5,-23.5 1124.5,-23.5"/>
<text text-anchor="middle" x="1168" y="-67.9" font-family="Times,serif" font-size="14.00">OptLink</text>
<polyline fill="none" stroke="black" points="1112.5,-61.5 1223.5,-61.5 "/>
<text text-anchor="start" x="1120.5" y="-44.9" font-family="Times,serif" font-size="14.00">userid :integer</text>
<text text-anchor="start" x="1120.5" y="-29.9" font-family="Times,serif" font-size="14.00">linknum :integer</text>
</g>
<!-- Account&#45;&gt;OptLink -->
<g id="edge22" class="edge"><title>Account&#45;&gt;OptLink</title>
<path fill="none" stroke="black" d="M849.49,-455.882C935.755,-426.886 1068.68,-368.376 1137,-268 1172.27,-216.175 1174.72,-140.903 1172.16,-94.8252"/>
<ellipse fill="none" stroke="black" cx="845.607" cy="-457.169" rx="4.00001" ry="4.00001"/>
<polygon fill="black" stroke="black" points="1172.14,-94.592 1175.97,-84.3161 1171.81,-89.6029 1171.48,-84.6139 1171.48,-84.6139 1171.48,-84.6139 1171.81,-89.6029 1166.99,-84.9116 1172.14,-94.592 1172.14,-94.592"/>
</g>
<!-- Permission -->
<g id="node11" class="node"><title>Permission</title>
<polyline fill="none" stroke="black" points="553.5,-176.5 628.5,-176.5 "/>
<path fill="none" stroke="black" d="M628.5,-176.5C634.5,-176.5 640.5,-182.5 640.5,-188.5"/>
<polyline fill="none" stroke="black" points="640.5,-188.5 640.5,-225.5 "/>
<path fill="none" stroke="black" d="M640.5,-225.5C640.5,-231.5 634.5,-237.5 628.5,-237.5"/>
<polyline fill="none" stroke="black" points="628.5,-237.5 553.5,-237.5 "/>
<path fill="none" stroke="black" d="M553.5,-237.5C547.5,-237.5 541.5,-231.5 541.5,-225.5"/>
<polyline fill="none" stroke="black" points="541.5,-225.5 541.5,-188.5 "/>
<path fill="none" stroke="black" d="M541.5,-188.5C541.5,-182.5 547.5,-176.5 553.5,-176.5"/>
<text text-anchor="middle" x="591" y="-220.9" font-family="Times,serif" font-size="14.00">Permission</text>
<polyline fill="none" stroke="black" points="541.5,-214.5 640.5,-214.5 "/>
<text text-anchor="start" x="549.5" y="-197.9" font-family="Times,serif" font-size="14.00">userid :integer</text>
<text text-anchor="start" x="549.5" y="-182.9" font-family="Times,serif" font-size="14.00">status :string</text>
</g>
<!-- Account&#45;&gt;Permission -->
<g id="edge8" class="edge"><title>Account&#45;&gt;Permission</title>
<path fill="none" stroke="black" d="M690.006,-359.145C663.064,-317.743 634.805,-274.316 615.407,-244.506"/>
<ellipse fill="none" stroke="black" cx="692.292" cy="-362.658" rx="4.00002" ry="4.00002"/>
<ellipse fill="black" stroke="black" cx="613.099" cy="-240.96" rx="4.00002" ry="4.00002"/>
</g>
<!-- Plan -->
<g id="node12" class="node"><title>Plan</title>
<polyline fill="none" stroke="black" points="669.5,-176.5 740.5,-176.5 "/>
<path fill="none" stroke="black" d="M740.5,-176.5C746.5,-176.5 752.5,-182.5 752.5,-188.5"/>
<polyline fill="none" stroke="black" points="752.5,-188.5 752.5,-225.5 "/>
<path fill="none" stroke="black" d="M752.5,-225.5C752.5,-231.5 746.5,-237.5 740.5,-237.5"/>
<polyline fill="none" stroke="black" points="740.5,-237.5 669.5,-237.5 "/>
<path fill="none" stroke="black" d="M669.5,-237.5C663.5,-237.5 657.5,-231.5 657.5,-225.5"/>
<polyline fill="none" stroke="black" points="657.5,-225.5 657.5,-188.5 "/>
<path fill="none" stroke="black" d="M657.5,-188.5C657.5,-182.5 663.5,-176.5 669.5,-176.5"/>
<text text-anchor="middle" x="705" y="-220.9" font-family="Times,serif" font-size="14.00">Plan</text>
<polyline fill="none" stroke="black" points="657.5,-214.5 752.5,-214.5 "/>
<text text-anchor="start" x="665.5" y="-197.9" font-family="Times,serif" font-size="14.00">plan :text</text>
<text text-anchor="start" x="665.5" y="-182.9" font-family="Times,serif" font-size="14.00">edit_text :text</text>
</g>
<!-- Account&#45;&gt;Plan -->
<g id="edge6" class="edge"><title>Account&#45;&gt;Plan</title>
<path fill="none" stroke="black" d="M729.464,-312.622C723.664,-287.581 718.199,-263.988 713.912,-245.479"/>
<ellipse fill="none" stroke="black" cx="730.45" cy="-316.88" rx="4.00001" ry="4.00001"/>
<ellipse fill="black" stroke="black" cx="712.992" cy="-241.504" rx="4.00001" ry="4.00001"/>
</g>
<!-- PollVote -->
<g id="node15" class="node"><title>PollVote</title>
<polyline fill="none" stroke="black" points="1322,-176.5 1414,-176.5 "/>
<path fill="none" stroke="black" d="M1414,-176.5C1420,-176.5 1426,-182.5 1426,-188.5"/>
<polyline fill="none" stroke="black" points="1426,-188.5 1426,-225.5 "/>
<path fill="none" stroke="black" d="M1426,-225.5C1426,-231.5 1420,-237.5 1414,-237.5"/>
<polyline fill="none" stroke="black" points="1414,-237.5 1322,-237.5 "/>
<path fill="none" stroke="black" d="M1322,-237.5C1316,-237.5 1310,-231.5 1310,-225.5"/>
<polyline fill="none" stroke="black" points="1310,-225.5 1310,-188.5 "/>
<path fill="none" stroke="black" d="M1310,-188.5C1310,-182.5 1316,-176.5 1322,-176.5"/>
<text text-anchor="middle" x="1368" y="-220.9" font-family="Times,serif" font-size="14.00">PollVote</text>
<polyline fill="none" stroke="black" points="1310,-214.5 1426,-214.5 "/>
<text text-anchor="start" x="1318" y="-197.9" font-family="Times,serif" font-size="14.00">userid :integer</text>
<text text-anchor="start" x="1318" y="-182.9" font-family="Times,serif" font-size="14.00">created :datetime</text>
</g>
<!-- Account&#45;&gt;PollVote -->
<g id="edge12" class="edge"><title>Account&#45;&gt;PollVote</title>
<path fill="none" stroke="black" d="M849.714,-456.745C958.157,-425.021 1153.13,-360.243 1301,-268 1311.53,-261.43 1321.94,-253.115 1331.29,-244.755"/>
<ellipse fill="none" stroke="black" cx="845.578" cy="-457.948" rx="4.00001" ry="4.00001"/>
<polygon fill="black" stroke="black" points="1331.53,-244.536 1341.93,-241.068 1335.21,-241.147 1338.88,-237.759 1338.88,-237.759 1338.88,-237.759 1335.21,-241.147 1335.83,-234.45 1331.53,-244.536 1331.53,-244.536"/>
</g>
<!-- Stylesheet -->
<g id="node18" class="node"><title>Stylesheet</title>
<polyline fill="none" stroke="black" points="923.5,-176.5 1000.5,-176.5 "/>
<path fill="none" stroke="black" d="M1000.5,-176.5C1006.5,-176.5 1012.5,-182.5 1012.5,-188.5"/>
<polyline fill="none" stroke="black" points="1012.5,-188.5 1012.5,-225.5 "/>
<path fill="none" stroke="black" d="M1012.5,-225.5C1012.5,-231.5 1006.5,-237.5 1000.5,-237.5"/>
<polyline fill="none" stroke="black" points="1000.5,-237.5 923.5,-237.5 "/>
<path fill="none" stroke="black" d="M923.5,-237.5C917.5,-237.5 911.5,-231.5 911.5,-225.5"/>
<polyline fill="none" stroke="black" points="911.5,-225.5 911.5,-188.5 "/>
<path fill="none" stroke="black" d="M911.5,-188.5C911.5,-182.5 917.5,-176.5 923.5,-176.5"/>
<text text-anchor="middle" x="962" y="-220.9" font-family="Times,serif" font-size="14.00">Stylesheet</text>
<polyline fill="none" stroke="black" points="911.5,-214.5 1012.5,-214.5 "/>
<text text-anchor="start" x="919.5" y="-197.9" font-family="Times,serif" font-size="14.00">userid :integer</text>
<text text-anchor="start" x="919.5" y="-182.9" font-family="Times,serif" font-size="14.00">stylesheet :text</text>
</g>
<!-- Account&#45;&gt;Stylesheet -->
<g id="edge24" class="edge"><title>Account&#45;&gt;Stylesheet</title>
<path fill="none" stroke="black" d="M847.319,-401.696C874.467,-372.3 903.406,-337.341 925,-302 935.644,-284.58 944.207,-263.574 950.404,-245.748"/>
<ellipse fill="none" stroke="black" cx="844.283" cy="-404.956" rx="4.00002" ry="4.00002"/>
<ellipse fill="black" stroke="black" cx="951.805" cy="-241.597" rx="4.00001" ry="4.00001"/>
</g>
<!-- SubBoard -->
<g id="node19" class="node"><title>SubBoard</title>
<polyline fill="none" stroke="black" points="343,-1 435,-1 "/>
<path fill="none" stroke="black" d="M435,-1C441,-1 447,-7 447,-13"/>
<polyline fill="none" stroke="black" points="447,-13 447,-95 "/>
<path fill="none" stroke="black" d="M447,-95C447,-101 441,-107 435,-107"/>
<polyline fill="none" stroke="black" points="435,-107 343,-107 "/>
<path fill="none" stroke="black" d="M343,-107C337,-107 331,-101 331,-95"/>
<polyline fill="none" stroke="black" points="331,-95 331,-13 "/>
<path fill="none" stroke="black" d="M331,-13C331,-7 337,-1 343,-1"/>
<text text-anchor="middle" x="389" y="-90.4" font-family="Times,serif" font-size="14.00">SubBoard</text>
<polyline fill="none" stroke="black" points="331,-84 447,-84 "/>
<text text-anchor="start" x="339" y="-67.4" font-family="Times,serif" font-size="14.00">threadid :integer</text>
<text text-anchor="start" x="339" y="-52.4" font-family="Times,serif" font-size="14.00">created :datetime</text>
<text text-anchor="start" x="339" y="-37.4" font-family="Times,serif" font-size="14.00">userid :integer</text>
<text text-anchor="start" x="339" y="-22.4" font-family="Times,serif" font-size="14.00">title :string</text>
<text text-anchor="start" x="339" y="-7.4" font-family="Times,serif" font-size="14.00">contents :text</text>
</g>
<!-- Account&#45;&gt;SubBoard -->
<g id="edge20" class="edge"><title>Account&#45;&gt;SubBoard</title>
<path fill="none" stroke="black" d="M686.361,-461.242C592.798,-436.042 443.795,-379.945 377,-268 350,-222.749 356.542,-162.078 367.78,-116.894"/>
<ellipse fill="none" stroke="black" cx="690.25" cy="-462.272" rx="4.00001" ry="4.00001"/>
<polygon fill="black" stroke="black" points="367.783,-116.883 374.671,-108.351 369.051,-112.047 370.318,-107.21 370.318,-107.21 370.318,-107.21 369.051,-112.047 365.966,-106.069 367.783,-116.883 367.783,-116.883"/>
</g>
<!-- ViewedSecret -->
<g id="node22" class="node"><title>ViewedSecret</title>
<polyline fill="none" stroke="black" points="1042,-184 1116,-184 "/>
<path fill="none" stroke="black" d="M1116,-184C1122,-184 1128,-190 1128,-196"/>
<polyline fill="none" stroke="black" points="1128,-196 1128,-218 "/>
<path fill="none" stroke="black" d="M1128,-218C1128,-224 1122,-230 1116,-230"/>
<polyline fill="none" stroke="black" points="1116,-230 1042,-230 "/>
<path fill="none" stroke="black" d="M1042,-230C1036,-230 1030,-224 1030,-218"/>
<polyline fill="none" stroke="black" points="1030,-218 1030,-196 "/>
<path fill="none" stroke="black" d="M1030,-196C1030,-190 1036,-184 1042,-184"/>
<text text-anchor="middle" x="1079" y="-213.4" font-family="Times,serif" font-size="14.00">ViewedSecret</text>
<polyline fill="none" stroke="black" points="1030,-207 1128,-207 "/>
<text text-anchor="start" x="1038" y="-190.4" font-family="Times,serif" font-size="14.00">date :datetime</text>
</g>
<!-- Account&#45;&gt;ViewedSecret -->
<g id="edge26" class="edge"><title>Account&#45;&gt;ViewedSecret</title>
<path fill="none" stroke="black" d="M848.033,-416.193C898.835,-375.375 965.266,-320.221 1021,-268 1031.7,-257.977 1042.92,-246.443 1052.61,-236.121"/>
<ellipse fill="none" stroke="black" cx="844.723" cy="-418.848" rx="4.00002" ry="4.00002"/>
<ellipse fill="black" stroke="black" cx="1055.39" cy="-233.131" rx="4.00002" ry="4.00002"/>
</g>
<!-- AccountSession -->
<g id="node3" class="node"><title>AccountSession</title>
<polygon fill="none" stroke="black" points="1491.5,-456 1491.5,-502 1600.5,-502 1600.5,-456 1491.5,-456"/>
<text text-anchor="middle" x="1546" y="-485.4" font-family="Times,serif" font-size="14.00">AccountSession</text>
<polyline fill="none" stroke="black" points="1491.5,-479 1600.5,-479 "/>
<text text-anchor="middle" x="1546" y="-462.4" font-family="Times,serif" font-size="14.00"> </text>
</g>
<!-- AvailLink&#45;&gt;OptLink -->
<g id="edge30" class="edge"><title>AvailLink&#45;&gt;OptLink</title>
<path fill="none" stroke="black" d="M1213.63,-153.741C1204.66,-134.137 1194.66,-112.282 1186.32,-94.0383"/>
<ellipse fill="none" stroke="black" cx="1215.33" cy="-157.458" rx="4.00002" ry="4.00002"/>
<polygon fill="black" stroke="black" points="1186.28,-93.9517 1186.21,-82.9861 1184.2,-89.405 1182.12,-84.8583 1182.12,-84.8583 1182.12,-84.8583 1184.2,-89.405 1178.03,-86.7305 1186.28,-93.9517 1186.28,-93.9517"/>
</g>
<!-- Interface -->
<g id="node8" class="node"><title>Interface</title>
<polyline fill="none" stroke="black" points="12,-448.5 74,-448.5 "/>
<path fill="none" stroke="black" d="M74,-448.5C80,-448.5 86,-454.5 86,-460.5"/>
<polyline fill="none" stroke="black" points="86,-460.5 86,-497.5 "/>
<path fill="none" stroke="black" d="M86,-497.5C86,-503.5 80,-509.5 74,-509.5"/>
<polyline fill="none" stroke="black" points="74,-509.5 12,-509.5 "/>
<path fill="none" stroke="black" d="M12,-509.5C6,-509.5 0,-503.5 0,-497.5"/>
<polyline fill="none" stroke="black" points="0,-497.5 0,-460.5 "/>
<path fill="none" stroke="black" d="M0,-460.5C0,-454.5 6,-448.5 12,-448.5"/>
<text text-anchor="middle" x="43" y="-492.9" font-family="Times,serif" font-size="14.00">Interface</text>
<polyline fill="none" stroke="black" points="0,-486.5 86,-486.5 "/>
<text text-anchor="start" x="8" y="-469.9" font-family="Times,serif" font-size="14.00">path :string</text>
<text text-anchor="start" x="8" y="-454.9" font-family="Times,serif" font-size="14.00">descr :string</text>
</g>
<!-- Interface&#45;&gt;Display -->
<g id="edge32" class="edge"><title>Interface&#45;&gt;Display</title>
<path fill="none" stroke="black" d="M54.8532,-440.618C70.6642,-389.421 98.5258,-299.202 114.606,-247.133"/>
<ellipse fill="none" stroke="black" cx="53.6529" cy="-444.505" rx="4.00001" ry="4.00001"/>
<polygon fill="black" stroke="black" points="114.611,-247.116 121.862,-238.889 116.087,-242.338 117.562,-237.561 117.562,-237.561 117.562,-237.561 116.087,-242.338 113.262,-236.233 114.611,-247.116 114.611,-247.116"/>
</g>
<!-- MainBoard&#45;&gt;SubBoard -->
<g id="edge34" class="edge"><title>MainBoard&#45;&gt;SubBoard</title>
<path fill="none" stroke="black" d="M431.872,-153.384C426.717,-141.434 421.208,-128.663 415.915,-116.394"/>
<ellipse fill="none" stroke="black" cx="433.613" cy="-157.422" rx="4.00001" ry="4.00001"/>
<polygon fill="black" stroke="black" points="415.88,-116.313 416.051,-105.349 413.9,-111.722 411.919,-107.131 411.919,-107.131 411.919,-107.131 413.9,-111.722 407.787,-108.914 415.88,-116.313 415.88,-116.313"/>
</g>
<!-- PollChoice -->
<g id="node13" class="node"><title>PollChoice</title>
<polyline fill="none" stroke="black" points="1322,-448.5 1414,-448.5 "/>
<path fill="none" stroke="black" d="M1414,-448.5C1420,-448.5 1426,-454.5 1426,-460.5"/>
<polyline fill="none" stroke="black" points="1426,-460.5 1426,-497.5 "/>
<path fill="none" stroke="black" d="M1426,-497.5C1426,-503.5 1420,-509.5 1414,-509.5"/>
<polyline fill="none" stroke="black" points="1414,-509.5 1322,-509.5 "/>
<path fill="none" stroke="black" d="M1322,-509.5C1316,-509.5 1310,-503.5 1310,-497.5"/>
<polyline fill="none" stroke="black" points="1310,-497.5 1310,-460.5 "/>
<path fill="none" stroke="black" d="M1310,-460.5C1310,-454.5 1316,-448.5 1322,-448.5"/>
<text text-anchor="middle" x="1368" y="-492.9" font-family="Times,serif" font-size="14.00">PollChoice</text>
<polyline fill="none" stroke="black" points="1310,-486.5 1426,-486.5 "/>
<text text-anchor="start" x="1318" y="-469.9" font-family="Times,serif" font-size="14.00">html :text</text>
<text text-anchor="start" x="1318" y="-454.9" font-family="Times,serif" font-size="14.00">created :datetime</text>
</g>
<!-- PollChoice&#45;&gt;PollVote -->
<g id="edge36" class="edge"><title>PollChoice&#45;&gt;PollVote</title>
<path fill="none" stroke="black" d="M1368,-440.283C1368,-389.234 1368,-299.812 1368,-247.762"/>
<ellipse fill="none" stroke="black" cx="1368" cy="-444.327" rx="4" ry="4"/>
<polygon fill="black" stroke="black" points="1368,-247.561 1372.5,-237.561 1368,-242.561 1368,-237.561 1368,-237.561 1368,-237.561 1368,-242.561 1363.5,-237.561 1368,-247.561 1368,-247.561"/>
</g>
<!-- PollQuestion -->
<g id="node14" class="node"><title>PollQuestion</title>
<polyline fill="none" stroke="black" points="1322,-684 1414,-684 "/>
<path fill="none" stroke="black" d="M1414,-684C1420,-684 1426,-690 1426,-696"/>
<polyline fill="none" stroke="black" points="1426,-696 1426,-748 "/>
<path fill="none" stroke="black" d="M1426,-748C1426,-754 1420,-760 1414,-760"/>
<polyline fill="none" stroke="black" points="1414,-760 1322,-760 "/>
<path fill="none" stroke="black" d="M1322,-760C1316,-760 1310,-754 1310,-748"/>
<polyline fill="none" stroke="black" points="1310,-748 1310,-696 "/>
<path fill="none" stroke="black" d="M1310,-696C1310,-690 1316,-684 1322,-684"/>
<text text-anchor="middle" x="1368" y="-743.4" font-family="Times,serif" font-size="14.00">PollQuestion</text>
<polyline fill="none" stroke="black" points="1310,-737 1426,-737 "/>
<text text-anchor="start" x="1318" y="-720.4" font-family="Times,serif" font-size="14.00">html :text</text>
<text text-anchor="start" x="1318" y="-705.4" font-family="Times,serif" font-size="14.00">type :string</text>
<text text-anchor="start" x="1318" y="-690.4" font-family="Times,serif" font-size="14.00">created :datetime</text>
</g>
<!-- PollQuestion&#45;&gt;PollChoice -->
<g id="edge38" class="edge"><title>PollQuestion&#45;&gt;PollChoice</title>
<path fill="none" stroke="black" d="M1368,-675.58C1368,-630.539 1368,-562.857 1368,-519.82"/>
<ellipse fill="none" stroke="black" cx="1368" cy="-679.764" rx="4" ry="4"/>
<polygon fill="black" stroke="black" points="1368,-519.703 1372.5,-509.703 1368,-514.703 1368,-509.703 1368,-509.703 1368,-509.703 1368,-514.703 1363.5,-509.703 1368,-519.703 1368,-519.703"/>
</g>
<!-- Secret -->
<g id="node16" class="node"><title>Secret</title>
<polyline fill="none" stroke="black" points="1677.5,-676.5 1810.5,-676.5 "/>
<path fill="none" stroke="black" d="M1810.5,-676.5C1816.5,-676.5 1822.5,-682.5 1822.5,-688.5"/>
<polyline fill="none" stroke="black" points="1822.5,-688.5 1822.5,-755.5 "/>
<path fill="none" stroke="black" d="M1822.5,-755.5C1822.5,-761.5 1816.5,-767.5 1810.5,-767.5"/>
<polyline fill="none" stroke="black" points="1810.5,-767.5 1677.5,-767.5 "/>
<path fill="none" stroke="black" d="M1677.5,-767.5C1671.5,-767.5 1665.5,-761.5 1665.5,-755.5"/>
<polyline fill="none" stroke="black" points="1665.5,-755.5 1665.5,-688.5 "/>
<path fill="none" stroke="black" d="M1665.5,-688.5C1665.5,-682.5 1671.5,-676.5 1677.5,-676.5"/>
<text text-anchor="middle" x="1744" y="-750.9" font-family="Times,serif" font-size="14.00">Secret</text>
<polyline fill="none" stroke="black" points="1665.5,-744.5 1822.5,-744.5 "/>
<text text-anchor="start" x="1673.5" y="-727.9" font-family="Times,serif" font-size="14.00">secret_text :text</text>
<text text-anchor="start" x="1673.5" y="-712.9" font-family="Times,serif" font-size="14.00">date :datetime</text>
<text text-anchor="start" x="1673.5" y="-697.9" font-family="Times,serif" font-size="14.00">display :string</text>
<text text-anchor="start" x="1673.5" y="-682.9" font-family="Times,serif" font-size="14.00">date_approved :datetime</text>
</g>
<!-- Style -->
<g id="node17" class="node"><title>Style</title>
<polyline fill="none" stroke="black" points="116,-441 184,-441 "/>
<path fill="none" stroke="black" d="M184,-441C190,-441 196,-447 196,-453"/>
<polyline fill="none" stroke="black" points="196,-453 196,-505 "/>
<path fill="none" stroke="black" d="M196,-505C196,-511 190,-517 184,-517"/>
<polyline fill="none" stroke="black" points="184,-517 116,-517 "/>
<path fill="none" stroke="black" d="M116,-517C110,-517 104,-511 104,-505"/>
<polyline fill="none" stroke="black" points="104,-505 104,-453 "/>
<path fill="none" stroke="black" d="M104,-453C104,-447 110,-441 116,-441"/>
<text text-anchor="middle" x="150" y="-500.4" font-family="Times,serif" font-size="14.00">Style</text>
<polyline fill="none" stroke="black" points="104,-494 196,-494 "/>
<text text-anchor="start" x="112" y="-477.4" font-family="Times,serif" font-size="14.00">style :integer</text>
<text text-anchor="start" x="112" y="-462.4" font-family="Times,serif" font-size="14.00">path :string</text>
<text text-anchor="start" x="112" y="-447.4" font-family="Times,serif" font-size="14.00">descr :string</text>
</g>
<!-- Style&#45;&gt;Display -->
<g id="edge40" class="edge"><title>Style&#45;&gt;Display</title>
<path fill="none" stroke="black" d="M146.078,-432.619C141.685,-380.665 134.632,-297.262 130.444,-247.732"/>
<ellipse fill="none" stroke="black" cx="146.441" cy="-436.907" rx="4" ry="4"/>
<polygon fill="black" stroke="black" points="130.439,-247.664 134.08,-237.321 130.017,-242.682 129.596,-237.7 129.596,-237.7 129.596,-237.7 130.017,-242.682 125.112,-238.079 130.439,-247.664 130.439,-247.664"/>
</g>
<!-- System -->
<g id="node20" class="node"><title>System</title>
<polyline fill="none" stroke="black" points="1852,-691.5 1902,-691.5 "/>
<path fill="none" stroke="black" d="M1902,-691.5C1908,-691.5 1914,-697.5 1914,-703.5"/>
<polyline fill="none" stroke="black" points="1914,-703.5 1914,-740.5 "/>
<path fill="none" stroke="black" d="M1914,-740.5C1914,-746.5 1908,-752.5 1902,-752.5"/>
<polyline fill="none" stroke="black" points="1902,-752.5 1852,-752.5 "/>
<path fill="none" stroke="black" d="M1852,-752.5C1846,-752.5 1840,-746.5 1840,-740.5"/>
<polyline fill="none" stroke="black" points="1840,-740.5 1840,-703.5 "/>
<path fill="none" stroke="black" d="M1840,-703.5C1840,-697.5 1846,-691.5 1852,-691.5"/>
<text text-anchor="middle" x="1877" y="-735.9" font-family="Times,serif" font-size="14.00">System</text>
<polyline fill="none" stroke="black" points="1840,-729.5 1914,-729.5 "/>
<text text-anchor="start" x="1848" y="-712.9" font-family="Times,serif" font-size="14.00">motd :text</text>
<text text-anchor="start" x="1848" y="-697.9" font-family="Times,serif" font-size="14.00">poll :text</text>
</g>
<!-- TentativeAccount -->
<g id="node21" class="node"><title>TentativeAccount</title>
<polyline fill="none" stroke="black" points="1943.5,-684 2038.5,-684 "/>
<path fill="none" stroke="black" d="M2038.5,-684C2044.5,-684 2050.5,-690 2050.5,-696"/>
<polyline fill="none" stroke="black" points="2050.5,-696 2050.5,-748 "/>
<path fill="none" stroke="black" d="M2050.5,-748C2050.5,-754 2044.5,-760 2038.5,-760"/>
<polyline fill="none" stroke="black" points="2038.5,-760 1943.5,-760 "/>
<path fill="none" stroke="black" d="M1943.5,-760C1937.5,-760 1931.5,-754 1931.5,-748"/>
<polyline fill="none" stroke="black" points="1931.5,-748 1931.5,-696 "/>
<path fill="none" stroke="black" d="M1931.5,-696C1931.5,-690 1937.5,-684 1943.5,-684"/>
<text text-anchor="middle" x="1991" y="-743.4" font-family="Times,serif" font-size="14.00">TentativeAccount</text>
<polyline fill="none" stroke="black" points="1931.5,-737 2050.5,-737 "/>
<text text-anchor="start" x="1939.5" y="-720.4" font-family="Times,serif" font-size="14.00">created :datetime</text>
<text text-anchor="start" x="1939.5" y="-705.4" font-family="Times,serif" font-size="14.00">token :string</text>
<text text-anchor="start" x="1939.5" y="-690.4" font-family="Times,serif" font-size="14.00">session :string</text>
</g>
<!-- Authlogic::Session::Base -->
<g id="node36" class="node"><title>Authlogic::Session::Base</title>
<ellipse fill="none" stroke="black" cx="1546" cy="-722" rx="102.19" ry="18"/>
<text text-anchor="middle" x="1546" y="-716.9" font-family="Times,serif" font-size="14.00">Authlogic::Session::Base</text>
</g>
<!-- Authlogic::Session::Base&#45;&gt;AccountSession -->
<g id="edge28" class="edge"><title>Authlogic::Session::Base&#45;&gt;AccountSession</title>
<path fill="none" stroke="black" d="M1546,-703.736C1546,-660.137 1546,-550.05 1546,-502.013"/>
</g>
</g>
</svg>
